<?xml version="1.0" encoding="UTF-8"?>
<svg id="Capa_2" data-name="Capa 2" xmlns="http://www.w3.org/2000/svg" viewBox="0 0 175.72 175.72">
  <defs>
    <style>
      .cls-1 {
        fill: #6f6f6f;
      }

      .cls-2 {
        fill: #0066b1;
      }
    </style>
  </defs>
  <g id="Capa_2-2" data-name="Capa 2">
    <g id="BMW-logo-grey-fallback-53px">
      <g id="BMW-logo">
        <g id="BMW-logo-fallback">
          <g id="BMW_Grey-Colour_RGB-2" data-name="BMW Grey-Colour RGB-2">
            <g id="BMW_Grey-Colour_RGB" data-name="BMW Grey-Colour RGB">
              <path id="Shape" class="cls-1" d="M87.86,0C39.34,0,0,39.34,0,87.86s39.34,87.86,87.86,87.86,87.86-39.34,87.86-87.86S136.38,0,87.86,0h0ZM170.01,87.86c0,45.37-36.78,82.15-82.15,82.15S5.71,133.23,5.71,87.86,42.49,5.71,87.86,5.71s82.15,36.78,82.15,82.15Z"/>
              <path id="Shape-2" data-name="Shape" class="cls-1" d="M87.86,35.8v2.85h0c27.13,0,49.21,22.07,49.21,49.21h2.85c0-28.75-23.31-52.07-52.07-52.07h0M87.86,137.07c-27.13,0-49.21-22.07-49.21-49.21h-2.85c0,28.75,23.31,52.07,52.07,52.07"/>
              <g id="Group">
                <path id="W" class="cls-1" d="M129.93,50.78c1.19,1.27,2.91,3.32,3.88,4.57l17.77-11.2c-.89-1.15-2.3-2.91-3.36-4.14l-11.26,7.39-.77.66.57-.83,4.97-9.85-3.51-3.49-9.92,4.94-.84.57.67-.76,7.45-11.17c-1.31-1.11-2.57-2.12-4.18-3.35l-11.28,17.64c1.43,1.09,3.31,2.7,4.52,3.79l10.62-5.47.68-.5-.5.68-5.51,10.56Z"/>
                <path id="M" class="cls-1" d="M89.59,28.43l4.86-10.8.31-.96-.09,1,.51,14.44c1.7.16,3.46.39,5.2.68l-.79-21.38c-2.43-.27-4.84-.46-7.26-.56l-4.78,11.79-.17.88-.17-.88-4.78-11.79c-2.42.1-4.83.29-7.26.56l-.79,21.38c1.73-.29,3.49-.52,5.2-.68l.51-14.44-.09-1,.31.96,4.86,10.8h4.42Z"/>
                <path id="B_22d" class="cls-1" d="M50.31,45.47c2.81-2.94,4.4-6.33,1.59-9.57-1.53-1.76-4.09-2.14-6.22-1.28l-.21.08.07-.18c.31-.84.52-3.5-1.77-5.34-1.11-.9-2.51-1.23-3.93-1.09-2.64.27-4.67,2.06-10.19,8.17-1.67,1.85-4.09,4.76-5.55,6.64l15.17,14.29c5.03-5.53,7.08-7.58,11.04-11.73ZM30.52,41.98c3.06-3.71,6.3-7.08,7.77-8.41.46-.42.97-.84,1.58-1,1-.27,2.02.43,2.26,1.45.23,1.02-.41,1.99-1.13,2.79-1.62,1.81-7.54,7.97-7.54,7.97l-2.94-2.78ZM36.46,47.58s5.77-6.06,7.65-8c.75-.77,1.23-1.24,1.74-1.49.67-.32,1.39-.39,2.04.04.64.43.93,1.16.77,1.89-.19.87-.9,1.69-1.49,2.32-.79.85-7.64,8.12-7.65,8.13l-3.08-2.9Z"/>
              </g>
              <path id="Path" class="cls-2" d="M87.86,35.8v52.07h-52.07c0-28.77,23.29-52.07,52.07-52.07Z"/>
              <path id="Path-2" data-name="Path" class="cls-2" d="M139.93,87.86c0,28.77-23.29,52.07-52.07,52.07v-52.07h52.07Z"/>
            </g>
          </g>
        </g>
      </g>
    </g>
  </g>
</svg>