<?xml version="1.0" encoding="UTF-8"?>
<svg id="Capa_2" data-name="Capa 2" xmlns="http://www.w3.org/2000/svg" viewBox="0 0 293.66 26.7">
  <defs>
    <style>
      .cls-1 {
        fill: #0c000b;
      }
    </style>
  </defs>
  <g id="Capa_2-2" data-name="Capa 2">
    <g id="Grupo_1" data-name="Grupo 1">
      <path id="Trazado_1" data-name="Trazado 1" class="cls-1" d="M254.19,9.08c0-3.54-2.88-6.41-6.42-6.41h-28.19l2.57,4.27h25.63c1.18,0,2.14.96,2.14,2.14s-.96,2.14-2.14,2.14h-28.19v12.81h5.13v-8.54h18.97l4.94,8.54h5.56l-5.03-8.7c2.94-.65,5.03-3.25,5.03-6.25"/>
      <path id="Trazado_2" data-name="Trazado 2" class="cls-1" d="M170.29,11.21h-24.34V2.67h-5.13v21.36h5.13v-8.54h24.34v8.54h5.13V2.67h-5.13v8.54Z"/>
      <path id="Trazado_3" data-name="Trazado 3" class="cls-1" d="M106.58,13.35c0-3.54,2.88-6.41,6.42-6.41h20.49l2.57-4.27h-23.91c-3.37,0-6.54,1.58-8.56,4.27-1.39,1.85-2.14,4.1-2.14,6.41,0,.72.07,1.43.21,2.14.86,4.2,4.14,7.47,8.34,8.33.7.14,1.42.21,2.14.21h21.35l2.57-4.27h-23.06c-3.54,0-6.41-2.86-6.42-6.4,0,0,0,0,0-.01h0Z"/>
      <path id="Trazado_4" data-name="Trazado 4" class="cls-1" d="M286.4,2.67l-12.19,9.36-12.19-9.36h-7.53l16.68,12.81v8.54h5.81v-8.54l16.68-12.81h-7.26Z"/>
      <path id="Trazado_5" data-name="Trazado 5" class="cls-1" d="M185.35,9.02c.03-1.16.98-2.08,2.13-2.08h24.77l2.57-4.27h-28.19c-3.54,0-6.41,2.87-6.42,6.41v14.95h32.04l2.57-4.27h-29.48v-4.27h21.78l2.57-4.27h-24.34v-2.19h0Z"/>
      <path id="Trazado_6" data-name="Trazado 6" class="cls-1" d="M66.79,3.41c-5.7-1.71-12.88-2.88-20.82-3.27-1.86-.09-3.75-.14-5.69-.15h-.47c-1.93,0-3.83.05-5.68.15-7.94.39-15.12,1.56-20.82,3.27C5.14,5.86,0,9.4,0,13.35c0,3.34,3.69,6.4,9.77,8.74,2.77,1.04,5.62,1.86,8.52,2.47,2.59.56,5.38,1.02,8.33,1.37,4.45.52,8.94.78,13.42.77,4.48,0,8.96-.25,13.42-.77,2.95-.35,5.75-.81,8.33-1.37,2.9-.61,5.75-1.43,8.52-2.47,6.09-2.34,9.77-5.4,9.77-8.74,0-3.95-5.14-7.49-13.3-9.94M16.63,17.13c-1.66,1.21-3.85,1.44-5.73.6-3.52-1.59-5.56-3.5-5.56-5.54,0-2.56,3.22-4.91,8.53-6.7,5.76-1.94,14-3.24,23.26-3.47.12,0,.25,0,.37,0,.56-.01,1.12-.02,1.68-.02-.37.06-.74.15-1.09.28,0,0,0,0-.01,0-.12.05-.24.09-.35.15h-.02c-1.39.55-3.27,1.82-3.88,2.25l-.1.07-.09.07-14.81,10.72-2.2,1.59ZM54.06,21.52c-4.65.59-9.33.88-14.01.87-4.68.01-9.36-.28-14.01-.87-3.91-.71-2.03-3.36-1-4.5.01-.01.02-.02.03-.03.25-.27.44-.46.47-.49h0c.66-.68,1.34-1.35,2.04-2.02,2.29-2.22,4.61-4.28,6.91-6.17.71-.59,1.42-1.16,2.13-1.71,0,0,0,0,0,0,0,0,0,0,.02-.01.03-.03.11-.09.22-.17.54-.4,1.93-1.33,3.18-1.33,1.25,0,2.64.92,3.18,1.33.03.02.05.04.08.06l.06.05s.05.04.07.05c.01,0,.02.02.02.02,0,0,0,0,.01,0,.71.55,1.42,1.13,2.13,1.71,2.3,1.89,4.62,3.96,6.91,6.17.69.67,1.37,1.34,2.04,2.01h0s.01.02.02.02c.06.06.24.22.45.46h0c1.02,1.12,3,3.83-.96,4.54M69.2,17.72c-1.88.84-4.07.62-5.73-.6l-2.2-1.59-14.81-10.72s-.02-.01-.05-.04l-.04-.03-.1-.07c-.61-.42-2.49-1.7-3.88-2.26h-.02c-.11-.04-.22-.09-.33-.13,0,0-.02,0-.03,0-.35-.13-.72-.23-1.09-.28.57,0,1.12.01,1.68.02h0c.12,0,.24,0,.37,0,9.27.23,17.5,1.52,23.26,3.47h0c5.31,1.79,8.53,4.13,8.53,6.7,0,2.04-2.04,3.94-5.56,5.54"/>
    </g>
  </g>
</svg>