<?xml version="1.0" encoding="UTF-8"?>
<svg id="Capa_2" data-name="Capa 2" xmlns="http://www.w3.org/2000/svg" viewBox="0 0 205.76 172.16">
  <g id="Capa_2-2" data-name="Capa 2">
    <g id="Layer_1" data-name="Layer 1">
      <g id="Nissan_Badge" data-name="Nissan Badge">
        <path d="M119.91,92.96c-.16.04-.82.04-1.1.04h-21.07v4.9h21.43c.16,0,1.43,0,1.67-.04,4.37-.41,6.37-4.04,6.37-7.23s-2.08-6.78-6.04-7.14c-.78-.08-1.43-.08-1.71-.08h-14c-.61,0-1.31-.04-1.55-.12-1.1-.29-1.51-1.27-1.51-2.08,0-.73.41-1.71,1.55-2.04.33-.08.69-.12,1.47-.12h20.21v-4.82h-20.54c-.86,0-1.51.04-2.04.12-3.51.49-5.96,3.31-5.96,6.9,0,2.94,1.84,6.37,5.88,6.94.73.08,1.76.08,2.2.08h13.64c.24,0,.86,0,.98.04,1.55.2,2.08,1.35,2.08,2.37s-.61,2.04-1.96,2.29Z"/>
        <path d="M79.98,92.96c-.16.04-.82.04-1.06.04h-21.11v4.9h21.43c.16,0,1.43,0,1.67-.04,4.37-.41,6.37-4.04,6.37-7.23s-2.08-6.78-6.04-7.14c-.78-.08-1.43-.08-1.71-.08h-14c-.61,0-1.31-.04-1.55-.12-1.1-.29-1.51-1.27-1.51-2.08,0-.73.41-1.71,1.55-2.04.33-.08.69-.12,1.47-.12h20.21v-4.82h-20.54c-.86,0-1.51.04-2.04.12-3.51.49-5.96,3.31-5.96,6.9,0,2.94,1.84,6.37,5.88,6.94.73.08,1.76.08,2.2.08h13.64c.24,0,.86,0,.98.04,1.55.2,2.08,1.35,2.08,2.37s-.57,2.04-1.96,2.29h0Z"/>
        <rect x="41.52" y="74.06" width="5.31" height="23.96"/>
        <polygon points="29.8 98.02 29.8 74.06 24.5 74.06 24.5 91.94 6.82 74.06 0 74.06 0 98.02 5.31 98.02 5.31 80.06 23.11 98.02 29.8 98.02"/>
        <polygon points="200.5 74.06 200.5 91.94 182.82 74.06 176 74.06 176 98.02 181.31 98.02 181.31 80.06 199.07 98.02 205.76 98.02 205.76 74.06 200.5 74.06"/>
        <path d="M148.36,74.06l-14.94,23.96h6.45l2.65-4.29h17.43l2.65,4.29h6.41l-14.94-23.96h-5.72ZM157.22,89.2h-11.96l6-9.63,5.96,9.63Z"/>
        <path d="M29.52,60.46C40.21,29.23,69.69,8.25,102.92,8.25s62.75,20.98,73.41,52.22l.08.24h23.39v-2.82l-9.72-1.14c-6-.69-7.27-3.35-8.9-6.7l-.41-.82C166.73,19.35,136.15,0,102.92,0S39.11,19.35,25.07,49.32l-.41.82c-1.63,3.35-2.9,6-8.9,6.7l-9.72,1.14v2.82h23.35l.12-.33Z"/>
        <path d="M176.41,111.41l-.08.24c-10.7,31.23-40.17,52.18-73.41,52.18s-62.75-20.98-73.41-52.22l-.08-.24H6.08v2.82l9.72,1.14c6,.69,7.27,3.35,8.9,6.7l.41.82c14.04,29.97,44.62,49.32,77.86,49.32s63.81-19.35,77.86-49.28l.41-.82c1.63-3.35,2.9-6,8.9-6.7l9.72-1.14v-2.82h-23.43Z"/>
      </g>
    </g>
  </g>
</svg>