<?xml version="1.0" encoding="UTF-8"?>
<svg id="Capa_2" data-name="Capa 2" xmlns="http://www.w3.org/2000/svg" viewBox="0 0 267.16 44.19">
  <g id="Capa_2-2" data-name="Capa 2">
    <g>
      <path d="M49.49,2.17c-4.23-1.36-9.52-2.17-15.23-2.17s-11,.8-15.23,2.17C7.74,5.8,0,13.32,0,22.02c0,12.23,15.33,22.16,34.25,22.16s34.25-9.92,34.25-22.16c0-8.7-7.74-16.22-19.02-19.85ZM34.25,34.65c-2.83,0-5.13-5.56-5.27-12.52,1.69.16,3.47.24,5.27.24s3.56-.08,5.27-.24c-.14,6.98-2.44,12.52-5.27,12.52ZM29.35,16.67c.77-4.9,2.68-8.37,4.9-8.37s4.14,3.47,4.9,8.37c-1.56.14-3.21.22-4.9.22s-3.34-.08-4.9-.22ZM42.16,16.3c-1.15-7.68-4.25-13.19-7.9-13.19s-6.77,5.51-7.9,13.19c-6.96-1.09-11.82-3.56-11.82-6.44,0-3.88,8.83-7.03,19.74-7.03s19.72,3.15,19.72,7.03c0,2.87-4.87,5.35-11.82,6.44M5,21.21c0-3.75,1.44-7.27,3.96-10.3-.03.21-.05.42-.05.64,0,4.73,7.09,8.73,16.97,10.2v1.07c0,8.78,2.43,16.21,5.8,18.76-14.95-.91-26.68-9.69-26.68-20.39M36.84,41.58c3.37-2.56,5.8-10,5.8-18.76v-1.07c9.88-1.47,16.97-5.49,16.97-10.2,0-.21-.02-.43-.05-.64,2.52,3.02,3.96,6.55,3.96,10.3,0,10.7-11.72,19.48-26.68,20.39"/>
      <path d="M105.04,6.32h-27.11v5.99h10.01v25.57h7.11l-.02-25.57h10.01v-5.99Z"/>
      <path d="M123.37,5.37c-9.25,0-16.74,7.49-16.74,16.74s7.49,16.74,16.74,16.74,16.74-7.49,16.74-16.74-7.49-16.74-16.74-16.74ZM131.57,27.16c-1.09,2.76-3.56,4.84-6.55,5.37-.53.1-1.09.14-1.64.14s-1.12-.05-1.64-.14c-3-.53-5.46-2.6-6.55-5.37-.62-1.56-.96-3.27-.96-5.06s.34-3.5.96-5.06c1.09-2.76,3.56-4.84,6.55-5.37.53-.1,1.09-.14,1.64-.14s1.12.05,1.64.14c3,.53,5.46,2.6,6.55,5.37.62,1.56.96,3.27.96,5.06s-.34,3.5-.96,5.06Z"/>
      <path d="M140.21,6.32h8.37l7.81,13.57,7.82-13.57h8.35l-12.61,19.88v11.67h-7.11v-11.67l-12.63-19.88Z"/>
      <path d="M172.7,22.1c0-9.23,7.49-16.74,16.74-16.74s16.72,7.49,16.72,16.74-7.49,16.74-16.72,16.74-16.74-7.49-16.74-16.74ZM189.44,32.67c.56,0,1.12-.05,1.64-.14,3-.53,5.46-2.6,6.55-5.37.62-1.56.96-3.27.96-5.06s-.33-3.5-.96-5.06c-1.09-2.76-3.56-4.84-6.55-5.37-.53-.1-1.09-.14-1.64-.14s-1.12.05-1.64.14c-3,.53-5.48,2.6-6.55,5.37-.62,1.56-.96,3.27-.96,5.06s.34,3.5.96,5.06c1.09,2.76,3.56,4.84,6.55,5.37.53.1,1.09.14,1.64.14Z"/>
      <path d="M256.67,30.92h-13.45l-2.59,6.95h-7.89l12.79-31.57h8.83l12.79,31.57h-7.89l-2.6-6.95ZM254.61,25.39l-4.65-12.47-4.66,12.47h9.31Z"/>
      <path d="M234.82,6.32h-27.11v5.99h10.01v25.57h7.11l-.02-25.57h10.01v-5.99Z"/>
    </g>
  </g>
</svg>