<?xml version="1.0" encoding="UTF-8"?>
<svg id="Capa_2" data-name="Capa 2" xmlns="http://www.w3.org/2000/svg" viewBox="0 0 166.59 177.57">
  <g id="Capa_2-2" data-name="Capa 2">
    <g>
      <g>
        <path d="M78.06.02c-1.78,3.34-25.84,48.34-36.2,67.67-.36.67-.33,1.15.02,1.81,10.15,18.94,30.73,57.38,30.94,57.74.21-.36,20.79-38.79,30.94-57.74.35-.66.38-1.14.02-1.81-5.81-10.81-11.58-21.63-17.39-32.44-.37-.69-.4-1.21,0-1.9,1.6-2.88,3.13-5.79,4.75-8.82.23.39,15.62,29.13,23.18,43.21.32.59.35,1.03.02,1.64-11.95,22.3-23.88,44.61-35.79,66.92-.32.6-.64.87-1.36.86-2.95-.05-5.9-.03-8.86,0-.55,0-.84-.17-1.1-.66-11.98-22.43-23.96-44.85-35.96-67.26-.25-.47-.27-.82-.01-1.3C43.24,45.53,55.23,23.11,67.23.7c.15-.28.51-.64.77-.65,3.29-.04,6.59-.03,10.06-.03Z"/>
        <path d="M91.71,13.75c-5.49,10.24-20.63,38.52-28.88,53.91-.35.66-.38,1.14-.02,1.81,5.81,10.81,11.58,21.63,17.39,32.44.37.69.39,1.21,0,1.9-1.6,2.88-3.13,5.79-4.75,8.82-.22-.37-15.61-29.11-23.18-43.22-.32-.59-.34-1.03-.02-1.64C64.21,45.48,76.14,23.17,88.06.85c.32-.6.65-.87,1.37-.85,2.95.05,5.9.03,8.86,0,.55,0,.83.17,1.09.66,11.98,22.43,23.96,44.85,35.96,67.26.25.47.27.82.01,1.3-12,22.41-23.99,44.84-35.99,67.25-.15.28-.51.64-.77.64-3.29.04-6.59.03-10.04.03.23-.44,24.29-45.49,36.18-67.67.36-.67.33-1.15-.02-1.81-10.15-18.94-30.73-57.38-30.94-57.74-.04.07-.79,1.47-2.06,3.82"/>
      </g>
      <g>
        <path d="M6.91,177.12H1.91v-21.69c0-.27-.03-.46-.09-.54-.06-.09-.22-.18-.47-.28l-1.35-.53.41-2.18h12.61c3.25,0,5.59.62,7.02,1.86,1.43,1.24,2.14,3.23,2.14,5.99,0,2.18-.44,3.85-1.33,5.03-.89,1.18-2.27,1.94-4.15,2.29l6.15,10.06h-5.52l-5.59-9.49h-4.84v9.49ZM6.91,163.87h5.55c1.73,0,2.96-.31,3.7-.94.74-.63,1.11-1.69,1.11-3.19s-.37-2.53-1.11-3.15c-.74-.63-1.97-.94-3.7-.94h-5.55v8.22Z"/>
        <path d="M45.33,151.9v3.83h-13.21v6.72h10.51v3.68h-10.51v7.17h13.51v3.83h-18.5v-21.69c0-.27-.03-.46-.09-.54-.06-.09-.22-.18-.47-.28l-1.35-.53.41-2.18h19.7Z"/>
        <path d="M49.76,155.43c0-.27-.03-.46-.09-.54-.06-.09-.22-.18-.47-.28l-1.35-.53.41-2.18h5.63c.38,0,.62.04.73.13.11.09.32.33.62.73l12.95,17.53v-18.39h4.62v25.22h-4.84l-13.59-18.39v18.39h-4.62v-21.69Z"/>
        <path d="M90.63,151.9c.5.9,1.04,1.98,1.61,3.25.57,1.26,1.17,2.63,1.78,4.11.61,1.48,1.22,3.02,1.82,4.62.6,1.6,1.17,3.19,1.71,4.77.54,1.58,1.03,3.09,1.48,4.54.45,1.45.83,2.76,1.13,3.94h-5.03c-.28-1.03-.56-2.03-.86-3-.3-.98-.59-1.94-.86-2.89h-11.11c-.3.95-.59,1.91-.88,2.89-.29.98-.57,1.98-.84,3h-5.03c.3-1.18.68-2.49,1.13-3.94.45-1.45.94-2.96,1.48-4.54.54-1.58,1.11-3.16,1.71-4.77.6-1.6,1.21-3.14,1.82-4.62.61-1.48,1.21-2.85,1.78-4.11.58-1.26,1.11-2.35,1.61-3.25h5.55ZM87.85,156.33c-1.6,3.6-3.05,7.34-4.35,11.22h8.71c-1.35-3.88-2.8-7.62-4.35-11.22Z"/>
        <path d="M102.68,155.43c0-.27-.03-.46-.09-.54-.06-.09-.22-.18-.47-.28l-1.35-.53.41-2.18h6.15c.23,0,.34.13.34.38v14.6c0,2.4.51,4.13,1.54,5.18,1.03,1.05,2.69,1.58,4.99,1.58s4-.53,5.01-1.58c1.01-1.05,1.52-2.78,1.52-5.18v-14.97h4.99v15.35c0,1.83-.22,3.39-.66,4.69-.44,1.3-1.12,2.37-2.04,3.21-.93.84-2.12,1.45-3.58,1.84-1.46.39-3.21.58-5.24.58s-3.77-.19-5.24-.58c-1.46-.39-2.66-1-3.58-1.84-.93-.84-1.61-1.91-2.05-3.21-.44-1.3-.66-2.86-.66-4.69v-11.82Z"/>
        <path d="M131.5,155.43c0-.27-.03-.46-.09-.54-.06-.09-.22-.18-.47-.28l-1.35-.53.41-2.18h6.15c.23,0,.34.13.34.38v21.02h11.52v3.83h-16.51v-21.69Z"/>
        <path d="M153.41,155.73h-8.18v-3.83h21.35v3.83h-8.18v21.39h-4.99v-21.39Z"/>
      </g>
    </g>
  </g>
</svg>