<?xml version="1.0" encoding="UTF-8"?>
<svg id="Capa_2" data-name="Capa 2" xmlns="http://www.w3.org/2000/svg" viewBox="0 0 262.58 98.47">
  <defs>
    <style>
      .cls-1 {
        fill: #fff;
      }

      .cls-2 {
        fill: #1e2f53;
      }
    </style>
  </defs>
  <g id="Capa_2-2" data-name="Capa 2">
    <g>
      <path class="cls-2" d="M131.29,0C58.42,0,0,21.84,0,49.23s58.91,49.24,131.29,49.24,131.29-22.09,131.29-49.24S203.69,0,131.29,0"/>
      <g>
        <path class="cls-1" d="M183.01,59.66c.04.23.33.45.61.55.12.04.16.11.05.35-.82,1.74-1.56,2.75-2.58,4.27-.94,1.41-2.01,2.5-3.29,3.56-1.95,1.61-4.64,3.35-6.87,2.18-.99-.52-1.41-1.9-1.4-3.02.05-3.16,1.46-6.39,4.04-9.57,3.16-3.88,6.65-5.9,8.93-4.8,2.37,1.14,1.62,3.88.56,6.02-.07.14-.09.3-.05.45M208.42,35.11c.16-.31,0-.53-.39-.53h-6.64c-.49,0-.75.07-.97.53-.76,1.46-10.04,15.35-11.77,18.05-.28.41-.65.35-.68-.12-.18-1.6-1.56-3.44-3.75-4.32-1.57-.64-3.29-.84-4.97-.59-3.05.42-5.77,2.03-8.16,3.84-3.59,2.74-6.69,6.28-10.71,8.91-2.2,1.42-5.19,2.67-7.2.81-1.81-1.68-1.61-5.43,1.17-8.31.29-.31.65-.05.59.22-.31,1.28.1,2.62,1.06,3.52,1.21,1.08,2.94,1.21,4.43.47,1.69-.88,2.84-2.54,3.08-4.44.4-2.76-1.52-5.32-4.28-5.72-.12-.02-.25-.03-.37-.04-2.3-.16-4.52.63-6.68,2.42-1.02.82-1.91,1.8-2.63,2.89-.23.33-.58.35-.56-.12.11-3.78-1.46-5.91-4.58-5.98-2.42-.06-5.01,1.26-7.03,2.87-2.21,1.77-4.15,4.13-6.22,6.34-.25.28-.47.27-.55-.26.01-2.35-.63-4.65-1.84-6.66-.45-.65-1.31-.85-2-.48-.34.18-1.5.7-2.35,1.4-.42.35-.59.85-.4,1.49,1.12,3.73.87,7.99-.65,11.58-1.4,3.29-4.1,6.26-7.28,7.26-2.09.67-4.27.34-5.63-1.53-1.84-2.56-1.1-7.01,1.66-10.72,2.44-3.26,5.97-5.33,9.48-6.67.41-.15.5-.42.39-.78l-.62-1.71c-.33-.87-1.23-1-2.33-.88-2.56.29-4.86,1.17-7.14,2.38-5.95,3.19-8.95,9.37-10.25,12.68-.44,1.24-1.07,2.4-1.87,3.45-.94,1.17-2.11,2.25-4.27,4.15-.24.22-.31.57-.18.87.44.81,1,1.54,1.66,2.18.35.18.76-.07.93-.19,1.5-1.02,3.31-2.64,4.19-3.75.31-.38.63-.21.8.35.81,2.98,3.04,5.36,5.97,6.35,5.46,1.84,11.13-.82,15.41-5.47,2.71-2.94,3.7-4.85,4.74-6.13,1.76-2.2,5.25-7.09,9.39-10.23,1.53-1.16,3.32-2.04,4.23-1.46.73.47.96,1.56-.2,3.69-4.23,7.73-10.45,16.79-11.6,19-.21.38-.02.68.38.68h6.41c.34-.02.49-.18.66-.41,3.24-5.08,6.29-9.92,9.57-14.91.19-.31.35-.07.35.06.08,1.15.35,2.74,1.06,3.78,1.03,1.74,2.91,2.79,4.93,2.77,1.38.02,2.74-.27,3.99-.85,1.36-.5,2.47-1.16,3.29-1.76.49-.34.59.23.56.32-.75,4.03.18,8.81,4.19,10.8,4.79,2.35,10.06-.96,13.11-3.97.29-.29.61-.26.65.36.07,1.15.59,2.5,1.53,3.46,2.54,2.55,7.67,1.53,12.81-2.45,3.31-2.55,6.76-6.15,9.89-9.97.12-.14.21-.38-.02-.62-.47-.49-1.16-1.06-1.63-1.5-.21-.19-.53-.13-.7,0-3.21,3.05-6.09,6.52-10.25,9.39-1.41.97-3.64,1.76-4.65.41-.4-.53-.35-1.26.04-2.23,1.21-3.02,20.43-32.29,21.44-34.02"/>
        <path class="cls-1" d="M117.95,38.65c.08.43.26.52.46.47,1.1-.3,2.05-.98,2.68-1.93.59-.85.86-2.07.28-2.56-.52-.43-1.35-.32-1.97.23-1.07.95-1.61,2.36-1.44,3.78M68.95,76.33c-7.16.05-13.48-4.38-14.21-12.06-.42-3.99.73-7.99,3.21-11.16,2.14-2.78,5.75-5.08,8.81-5.65.99-.19,2.33-.07,2.88.59.87,1.01.62,2.11-.25,2.56-2.34,1.19-5.14,3.23-6.53,6.01-1.3,2.41-1.16,5.35.36,7.62,2.88,4.35,10.91,4.46,18.37-2.47,1.86-1.7,3.5-3.34,5.18-5.26,3.29-3.76,4.38-5.13,8.75-11.19.05-.07.07-.16.05-.2-.04-.08-.09-.09-.22-.12-2.91.09-5.46.96-7.93,2.81-.7.52-1.74.45-2.18-.23-.49-.78-.14-1.79.68-2.35,3.97-2.77,8.31-3.26,12.75-4.02,0,0,.31,0,.56-.32,1.82-2.35,3.19-4.45,5.13-6.81,1.96-2.4,4.49-4.6,6.41-6.26,2.7-2.31,4.43-3.09,6.18-4.05.47-.23-.06-.53-.2-.53-9.81-1.84-19.99-4.23-29.72-.62-6.74,2.51-9.7,7.87-8.28,11.44,1.01,2.54,4.35,2.94,7.47,1.41,2.58-1.26,4.99-3.31,6.69-5.94.94-1.47,2.95-.41,1.87,2.14-2.85,6.69-8.29,12-14.91,12.22-5.65.19-9.29-3.97-9.28-9.09.02-10.1,11.27-16.75,23.08-17.74,14.23-1.17,27.71,2.62,41.84,4.33,10.83,1.3,21.21,1.34,32.09-1.17,1.29-.27,2.18.55,2.11,1.84-.12,1.88-1.57,3.69-5.16,5.64-4.07,2.24-8.34,2.92-12.8,2.96-10.76.09-20.79-4.11-31.18-6.36.01.46.14,1-.23,1.29-5.75,4.23-10.96,8.54-14.44,14.59-.12.14-.05.28.15.26,3.03-.15,5.74-.23,8.57-.47.48-.04.5-.15.47-.52-.31-2.27.51-4.54,2.18-6.09,1.88-1.68,4.23-1.88,5.79-.66,1.76,1.37,1.61,3.86.65,5.72-.88,1.65-2.39,2.87-4.18,3.39,0,0-.33.07-.28.36.06.47,2.2,1.66,2.37,1.97.18.31.08.76-.23,1.12-.25.31-.63.49-1.03.49-.36,0-.59-.13-1.06-.39-1.12-.6-2.12-1.4-2.94-2.37-.28-.34-.42-.35-1.09-.31-3.05.18-7.82.63-11.04,1.03-.79.09-.9.25-1.06.52-5.14,8.48-10.64,17.63-16.68,23.76-6.46,6.56-11.84,8.29-17.54,8.34"/>
        <path class="cls-1" d="M131.29,8.06C64.25,8.06,9.91,26.58,9.91,49.25s54.34,41.2,121.38,41.2,121.38-18.53,121.38-41.2S198.32,8.06,131.29,8.06M131.29,94.18c-69.49,0-125.81-20.12-125.81-44.93S61.81,4.32,131.29,4.32s125.8,20.1,125.8,44.93-56.32,44.93-125.8,44.93"/>
      </g>
    </g>
  </g>
</svg>