<?xml version="1.0" encoding="UTF-8"?>
<svg id="Capa_2" data-name="Capa 2" xmlns="http://www.w3.org/2000/svg" viewBox="0 0 213.95 96.14">
  <defs>
    <style>
      .cls-1 {
        fill: #26201f;
      }

      .cls-2 {
        fill: #1d1d1b;
      }
    </style>
  </defs>
  <g id="Capa_2-2" data-name="Capa 2">
    <g>
      <path class="cls-2" d="M40.34,4.77c.18,0,.39.01.63.02.99.02,2.1-.39,2.84-.74.53-.25.87-.46.83-.46-.68,0-1.78-.02-2.19-.02-1.78,0-2.72,1.01-2.72,1.1,0,.06.24.08.62.1ZM205.94,52.37c-1.01-2.25-3.8-1.52-3.8-1.52-1.32.28-2.82,1.79-5.06,2.45-4.8,1.42-8.63-.23-8.63-.23-7.39-3.2-31.15-16.8-43.23-22.74,0,0-14.04-6.5-34.41-14.57,0,0-40.02-17.08-66.74-15.68,0,0-14.24.38-18.72,6.66,0,0-.76.87-.33,1.8,0,0,.08.27-.09.45,0,0-2.4,2.15-3.62,4.06-.43.7-.84,1.81-.03,2.68,0,0,.4.31.56.58.35.57.67,1.42,1.1,1.92.62.74,1.88,2.03,3.66,1.72.79-.14.8-.36.8-.36.89.88,2.33.85,2.33.85-.18-.56-.8-1.67-.89-2.34-.09-.74.12-1.44.12-1.44.25-.83.75-1.89,1.3-2.42.48-.48,1.71-1.02,2.7-.34.79.56,1.74,2.39.95,4.99-.04.2-.9,2.05-1.83,2.33,0,0-.09.03-.26.03-.63,0-1.79-.65-1.79-.65,0,0-.03.16.14.84.1.39.24.81.35,1.14,0,0-.23.4-.37.64-.19.25-.41,1.17.07,1.52,0,0,2.06,1.4,4.05,1.52,1.38.08,1.9-.84,1.9-.84,1.01-1.4,1.78-2.58,2.84-3.56,2.92-2.67,7.02-3.39,7.02-3.39.27-.04,4.75-1.28,12.36,4.8-2.17.18-4.76.69-6.74,1.04-5.64,1.01-9.25,6.32-10.31,8.49-2.74,5.65,2.86,7.59,2.86,7.59.05-.05,5.34-.47,7.89-6.09,0,0,.93-2.49,3.42-1.68,1.62.53,15.96,5.54,19.19,6.39,0,0,9.6,2.5,13.22-1.91,5.78,1.9,11.2,2.82,25.41.98,2.47-.32,4.41-.25,4.41-.25,3.32.25,6.35,2.48,7.27,3.95,3.73,5.98,8.48,17.86,24.93,16.41l7.44-.67c4.54-.27,8.24-.45,11.99,1.53,1.64.86,2.54,1.17,5.31,3.82,3.79,3.61,7.28,7.51,11.92,5.38,1.64-.76,3.5-3.7,3.5-3.7-.18-1.34-.78-2.63-2.25-3.74,4.22,1,13.73,1.65,17.41-4.78.95-1.5,1.05-2.83.69-3.64ZM204.44,55.4c-.36,1.25-2.14,2.91-4.3,3.87-2.27,1.02-7.02,1.28-9.76.84,0,0-5.31-.54-9.96-5.39-1.47-1.53-3.27-3.27-4.93-4.99-.73-.77-2.53-2.57-5.53-2.97-3.12-.42-10.74-.63-13.61-1.58-1.92-.64-4.23-1.94-7.3-6.49-1.48-2.18-2.53-2.78-4.54-4.05,0,0,1.54,1.23,2.42,2.77,1.26,2.25,1.9,3.89,2.59,5.09.69,1.2,1.46,2.27,2.64,3.21,1.46,1.17,2.37,1.39,3.94,1.65,1.51.25,6.61.21,10.99.14,4.31-.07,6.23,1.32,7.64,2.51,1.31,1.1,3.55,4.26,4.93,5.64,1.65,1.64,2.85,3.31,6.1,4.95,1.13.57,2.98,1.98,2.88,3.33-1.46,1.46-3.28,1.85-7.63.68.31.3,2.59,2.7,6.49,1.56-1.18.98-2.33,1.4-3.53,1.34-4.08-.23-8.08-5.25-10.32-7.11-1.7-1.41-1.9-1.76-4.79-3.77-4.39-3.04-14.25-2.18-14.25-2.18l-7.23.38c-14.09,1.07-20.01-11.42-21.57-14.02-.54-.9-1.03-1.63-1.5-2.23-.72-.96-4.57-5.95-8.46-7.59,0,0,3.82,3.29,3.6,5.47,0,0-1.58-.74-5.9-.12-18.56,2.64-24.88-2-24.88-2,.86-3.72-1.74-7.54-1.74-7.54,1.43.45,10.56,3.54,19.23,1.78,0,0-14.1.08-23.99-7.81,0,0,6.15,7.71,4.69,12.76,0,0-1.01,5.38-11.74,3.21-1.14-.23-2.49-.61-18.55-5.07-3.77-1.13-5.08.67-5.76,1.76-.03,1.59-1.9,3.44-2.84,4.02-4.97-.9-2.99-5.51-2.99-5.51-3.13,4.47.15,6.45,1.19,6.59-.62.3-1.21.52-1.71.7,0,0-4.06-2.42-1.79-6.38,3.17-5.52,6.39-7.3,12.3-7.83,2.58-.25,4.74-.43,6.38-.21,4.29.59,6.97,3.01,13.4,3.64-13.63-4.01-13.66-11.91-13.71-12.06,0,0,0-.02,0-.02-.75,2.6-.34,4.8.33,6.65-.19-.07-3.17-2.02-4.3-2.71-4.89-2.99-8.76-3.51-8.76-3.51-1.62-.21-2.38-2.18-2.38-2.18-.06-.1-.12-.19-.17-.29-2.26-3.85-4.49-3.93-4.49-3.93,1.25,1.71,1.28,4.14,1.28,4.14.67,4.79-4.75,6.27-4.75,6.27-3.32,4.22-3.15,4.3-3.89,4.41-.74.1-2.36-.72-2.36-.72-.26-.39.11-.79.11-.79.62-.49,1.13-.98,1.13-.98,3.51-3.59,3.93-5.35,3.5-7.67-.89-4.67-4.23-4.13-4.23-4.13-1.57.09-2.28,1.49-2.28,1.49-.56.86-1.74,3.49-1.74,3.49-.72,1.57-1.46,1.93-1.85,2-.17.03-.48.02-.58.02-1.13-.04-1.99-1.08-1.99-1.08-.05-.05-.1-.11-.14-.15-1.03-1.11-.28-2.56-.28-2.56,1.39-3.24,4.09-3.71,4.46-3.76.38-.05,1.62-.23,1.62-.23,3.43-.58,5.06-4.15,5.06-4.15-2.32-.03-3.45.13-3.45.13-2.28.4-3.05,3.08-3.05,3.08-1.93.44-1.88-1.22-1.54-1.72.3-.47,1.44-2.46,8.84-4.17,0,0,3.65-1.1,11.46-.75l-.32.6c-.69,1.31-3.43,4-7.95,3,0,0,.04,2.01,4.95,2.73,0,0,4.44.79,11.96,6.84,0,0-3.6-7.15-9.71-9,0,0-.76-.16-.39-.64,0,0,3.77-3.5,8.63-3.64,0,0,16.45-1.58,25.58,10.98,0,0-2.75-5.33-4.84-7.66,0,0,9.55,2.7,24.24,7.8,0,0,10.02,3.55,16.43,6.08,8.66,3.41,30.3,11.83,44.11,19.36,2.46,1.34,27.44,14.36,27.44,14.36,6.91,3.11,11.7,1.22,11.7,1.22,1.56-.59,4.38-2.76,5.61-1.53.64.64.72,1.49.42,2.33ZM28.57,9.16s.15-.43.19-.54c.04-.1.45-1.23,1.47-1.33,0,0,.59-.04,1.5-.04,0,0-.45,1.43-2.2,1.74,0,0-.68.15-.96.16Z"/>
      <path id="FS_Master_Logo" data-name="FS Master Logo" class="cls-1" d="M38.7,89.76h14.98l-7.5-8.7-7.48,8.7ZM55.56,91.96h-18.75l-3.11,3.62h-3.67l14.75-17h6.24l14.76,17h-7.1l-3.12-3.62ZM149.41,89.76h14.98l-7.5-8.7-7.48,8.7ZM166.28,91.96h-18.75l-3.11,3.62h-3.67l14.75-17h6.24l14.76,17h-7.1l-3.12-3.62ZM27.15,78.58v8.29c0,2.68-.62,4.31-1.89,5.61-2.23,2.28-6.49,3.1-12.53,3.1H0v-2.28h11.72c3.6,0,6.03-.6,7.49-2.04,1.11-1.1,1.61-2.62,1.61-4.89v-7.78h6.33ZM93.33,93.31v-5.54h6.3v7.81h-18.32c-3.43,0-6.14-.4-8.18-1.22-3.4-1.37-4.96-3.88-4.96-7.31,0-3.24,1.69-5.48,3.85-6.69,2.29-1.28,4.88-1.78,9.18-1.78h17.78v2.27h-15.81c-3.39,0-5.23.51-6.64,1.65-1.25,1.02-1.92,2.54-1.92,4.57,0,2.11.7,3.66,2.04,4.68,1.41,1.07,3.31,1.55,6.57,1.55h10.11ZM203.99,89.58c2.38-.08,4.4-.44,5.95-1.27,1.61-.87,2.38-2.51,2.38-4.21,0-2.27-1.02-3.73-2.86-4.54-1.64-.72-3.67-.97-7.72-.97h-19.62v17h6.33v-5.89h8.32l9.49,5.89h7.71l-9.96-6.01ZM200.91,80.73c2.37,0,3.42.22,4.14.76.69.51.93,1.3.93,2.52v.32c0,1.1-.26,2-1.07,2.56-.79.55-1.91.67-3.93.67h-12.55v-6.83h12.47ZM137.95,78.58v8.47c0,2.19-.24,3.93-1.34,5.38-1.8,2.36-5.1,3.72-14.29,3.72h-.1c-9.15,0-12.46-1.36-14.26-3.71-1.11-1.45-1.34-3.18-1.34-5.38v-8.47h6.33v8.23c0,2.21.28,3.51,1.09,4.65,1.37,1.93,3.73,2.63,7.98,2.63h.54c4.44,0,6.61-.7,7.98-2.63.81-1.14,1.09-2.49,1.09-4.64v-8.24h6.33Z"/>
    </g>
  </g>
</svg>