<?xml version="1.0" encoding="UTF-8"?>
<svg id="Capa_2" data-name="Capa 2" xmlns="http://www.w3.org/2000/svg" viewBox="0 0 224.41 42.6">
  <defs>
    <style>
      .cls-1 {
        fill: #1d1d1b;
        fill-rule: evenodd;
      }
    </style>
  </defs>
  <g id="Capa_2-2" data-name="Capa 2">
    <g>
      <path class="cls-1" d="M17.14,21.01c4.03,1.68,6.72,4.03,9.16,9.33,2.44-5.29,5.04-7.98,9.16-9.66,3.45-1.24,6.9-2.47,10.35-3.71.02.09.04.18.07.26.17,1.18.25,2.61.25,4.03,0,14.62-9.66,17.56-19.83,17.48-10.17.08-19.75-2.86-19.75-17.48,0-1.09,0-2.19.17-3.11.05-.21.1-.41.15-.62,3.42,1.16,6.85,2.32,10.27,3.48h0ZM43.59,10.87c-.08-.12-.15-.24-.23-.37-3.61-5.38-10.17-6.64-17.06-6.64s-13.61,1.34-17.14,6.81c-.13.22-.25.44-.38.66,6.06,3.47,12.94,3.53,17.52,12.28,4.21-9.02,11.16-9.15,17.29-12.74h0ZM48.49,7.73c-.2-.22-.39-.45-.59-.67C42.52,1.26,33.7,0,26.3,0S9.75,1.26,4.45,7.39c-.08.11-.17.22-.25.34C1.6,10.84,0,15.29,0,21.26c0,18.4,14.96,21.34,26.3,21.34s26.39-2.94,26.39-21.34c0-5.97-1.6-10.42-4.2-13.53h0Z"/>
      <path class="cls-1" d="M224.41,15.16v19.79h-21.34s-6.97-.11-7.96-7.08c-1.66,5.09-5.2,6.97-8.96,6.97h-19.68V14.72l-25.1,20.23h-25.43s-4.42,0-6.63-3.65v3.65h-9.18v-15.7s.55-3.54-3.76-3.54h-2.98v19.24h-8.84V15.71h-6.52v19.24h-9.29V7.53h30.73s9.84-.66,9.84,10.28v3.1c2.21-3.43,6.63-3.21,8.07-3.21h11.61s.55-2.76-3.65-2.76h-14.48v-7.41h18.24s8.18-.33,8.18,7.63v12.16l24.98-19.79h24.54s9.4-.33,9.4,12.16v1.33c2.21-3.54,6.74-3.32,8.18-3.32h11.61s.66-2.76-3.54-2.76h-14.48v-7.41h18.24s8.18-.33,8.18,7.63h0ZM144.26,34.95l9.84-8.07h10.83v8.07h-20.67ZM159.4,7.53l-9.84,8.18h-10.83V7.53h20.67ZM206.28,23.78h9.51v3.65h-9.73s-1.99.11-1.99-1.88c0-1.66,1.66-1.77,2.21-1.77h0ZM119.27,23.78h9.62v3.65h-9.73s-1.99.11-1.99-1.88c0-1.66,1.55-1.77,2.1-1.77h0ZM183.62,26.88h-8.29v-11.61h8.4s3.98.33,3.98,5.42-1.88,6.19-4.09,6.19h0Z"/>
    </g>
  </g>
</svg>