<?xml version="1.0" encoding="UTF-8"?>
<svg id="Capa_2" data-name="Capa 2" xmlns="http://www.w3.org/2000/svg" viewBox="0 0 219.69 90.17">
  <defs>
    <style>
      .cls-1 {
        fill: #0c000b;
        fill-rule: evenodd;
      }
    </style>
  </defs>
  <g id="Capa_2-2" data-name="Capa 2">
    <g>
      <path class="cls-1" d="M55.06,46.81c0,20.21-9.31,27.93-27.93,27.93S0,64.37,0,48.41v-10.11h20.48v8.24c0,5.59,0,10.9,6.12,10.9s5.59-7.18,5.59-10.37V0h22.87v46.81h0Z"/>
      <path class="cls-1" d="M75.54,40.43c.8-5.59,3.99-8.78,9.31-8.78,4.79,0,8.24,3.99,8.24,8.78h-17.55ZM110.91,51.07c0-20.75-8.51-32.45-27.66-32.45-15.43,0-25.53,12.5-25.53,27.93,0,17.82,11.7,27.93,27.13,27.93,11.17,0,21.28-5.32,25-16.76h-17.29c-1.6,2.39-4.79,3.72-7.71,3.72-5.85,0-9.04-4.26-9.57-10.37h35.64Z"/>
      <path class="cls-1" d="M130.06,40.43c.8-5.59,3.99-8.78,9.31-8.78,4.79,0,8.25,3.99,8.25,8.78h-17.55ZM165.44,51.07c0-20.75-8.51-32.45-27.66-32.45-15.43,0-25.53,12.5-25.53,27.93,0,17.82,11.7,27.93,27.13,27.93,10.91,0,21.28-5.32,25-16.76h-17.29c-1.6,2.39-4.79,3.72-7.71,3.72-5.85,0-9.04-4.26-9.57-10.37h35.64Z"/>
      <path class="cls-1" d="M185.12,46.55c0-6.38,1.33-13.03,7.98-13.03s8.25,6.65,8.25,13.03-1.6,13.03-8.25,13.03-7.98-6.92-7.98-13.03h0ZM167.3,90.17h18.35v-22.87h.27c2.66,4.52,7.71,7.18,13.3,7.18,16.22,0,20.48-15.16,20.48-27.66,0-13.3-6.38-28.19-20.21-28.19-9.04,0-11.97,3.72-14.36,7.18h0v-5.85h-17.82v70.22h0Z"/>
      <path class="cls-1" d="M211.45,80.86c0-2.39,1.6-3.99,3.72-3.99s3.72,1.6,3.72,3.99c0,2.13-1.6,3.72-3.72,3.72s-3.72-1.6-3.72-3.72h0ZM210.39,80.86c0,2.39,2.13,4.52,4.79,4.52,2.39,0,4.52-2.13,4.52-4.52,0-2.66-2.13-4.52-4.52-4.52-2.66,0-4.79,1.86-4.79,4.52h0ZM213.31,83.52h.8v-2.39h1.06l1.33,2.39h1.06l-1.6-2.39c.8,0,1.33-.53,1.33-1.6,0-.8-.53-1.33-1.86-1.33h-2.13v5.32h0ZM214.11,78.73h1.33c.53,0,1.06.27,1.06.8,0,.8-.8,1.06-1.33,1.06h-1.06v-1.86h0Z"/>
    </g>
  </g>
</svg>