<?xml version="1.0" encoding="UTF-8"?>
<svg id="Capa_2" data-name="Capa 2" xmlns="http://www.w3.org/2000/svg" viewBox="0 0 168.86 129.32">
  <defs>
    <style>
      .cls-1 {
        fill: #0c000b;
      }
    </style>
  </defs>
  <g id="Capa_2-2" data-name="Capa 2">
    <g>
      <path id="path1" class="cls-1" d="M88.24,15.93v39.05h18.24c-.3-2.39-.62-4.55-.85-6.72-1.13-10.43-3.23-20.66-6.65-30.59-.24-.69-1.08-1.63-1.68-1.67-2.95-.17-5.91-.08-9.05-.08M108.94,129.11c-.07-1.11-.15-1.91-.15-2.72-.02-5.24.06-10.48-.03-15.72-.22-12.68-.5-25.37-.79-38.05-.02-.71-.29-1.4-.41-1.94h-19.55v58.32c-1.05.05-1.72.11-2.4.12-3.97.07-7.95.09-11.92.2-1.14.03-1.65-.4-1.66-1.51,0-.69-.02-1.39-.02-2.08,0-40.92,0-81.84.01-122.76,0-2.87,0-2.88,2.94-2.89,10.74-.01,21.47.04,32.21-.07,1.92-.02,3.01.7,3.64,2.3,1.96,4.98,4.12,9.9,5.72,14.99,4.08,12.93,6.05,26.27,6.95,39.76.67,10.06,1.25,20.14,1.5,30.22.33,13.25.27,26.51.43,39.77.02,1.51-.38,2.15-2.02,2.12-4.73-.09-9.46-.03-14.45-.03"/>
      <path id="path3" class="cls-1" d="M17.93,129.19H0V.12h37.7v15.52h-19.56v39.53c2.03,0,3.97,0,5.9,0,2.59,0,5.18.02,7.77,0,1.07-.01,1.58.27,1.55,1.52-.08,4.53-.03,9.07-.03,13.86-1.65.09-3.24.23-4.84.26-2.78.04-5.56.11-8.34-.02-1.77-.08-2.27.54-2.26,2.28.05,17.94.03,35.87.03,53.81v2.33"/>
      <path id="path5" class="cls-1" d="M154.93,129.11c-5.77,0-11.07.03-16.37-.05-.44,0-1.09-.72-1.25-1.23-.23-.69-.1-1.5-.1-2.26,0-35.19,0-70.37,0-105.56v-4.33c-.93-.06-1.6-.14-2.26-.15-3.41,0-6.82-.03-10.23.04-1.23.02-1.71-.45-1.7-1.65.03-3.98.03-7.96,0-11.94,0-1.13.32-1.78,1.6-1.77,14.4.02,28.8.02,43.21.03.3,0,.59.13,1.03.23v14.99h-13.92v113.65Z"/>
      <path id="path7" class="cls-1" d="M62.81,128.93c-1.14.05-1.88.12-2.63.12-4.42,0-8.84-.04-13.26.03-1.53.03-2.23-.57-2.31-2.03-.04-.69-.13-1.38-.13-2.07,0-39.54,0-79.07,0-118.61,0-1.43-.03-2.87.02-4.3.04-1.22.51-2.03,1.93-2.02,4.86.03,9.73.01,14.59.02,1.95,0,1.98.51,1.98,3.5.02,40.71-.1,81.42-.18,122.14,0,.99,0,1.99,0,3.23"/>
    </g>
  </g>
</svg>