<?xml version="1.0" encoding="UTF-8"?>
<svg id="Capa_2" data-name="Capa 2" xmlns="http://www.w3.org/2000/svg" viewBox="0 0 186.5 186.5">
  <defs>
    <style>
      .cls-1 {
        fill: #0c000b;
      }
    </style>
  </defs>
  <g id="Capa_2-2" data-name="Capa 2">
    <g>
      <path class="cls-1" d="M168.76,93.58c-3.97,0-7.24-3.58-8.12-8.91-.99-5.85,1.53-10.65,5.94-11.42.38-.07.76-.1,1.15-.1,3.91,0,7.26,3.66,8.13,8.88.99,5.86-1.52,10.67-5.92,11.43-.39.07-.78.11-1.17.11ZM167.95,77.31c-.23,0-.47.02-.7.06-2.67.46-4,3.11-3.4,6.74.55,3.29,2.34,5.33,4.68,5.33.24,0,.48-.02.71-.06,2.65-.46,3.98-3.11,3.37-6.76-.54-3.22-2.37-5.3-4.67-5.3h0ZM12.35,84.17h-.02c-.53-.3-1.16-.33-1.71-.1l.88-5.66,15.79-5.31-.6,3.95-2.83.94-1.45,9.51,2.41,1.82-.6,3.95-11.87-9.11h0ZM14.12,81.24l5.44,4.11.95-6.25-6.39,2.14h0ZM150.49,55.51l11.28-6.12c.57-.34,1.02-.86,1.28-1.47l7.9,15.13-2.72,1.47-5.7-10.95-2.3,1.25,3.95,7.61-2.72,1.47-3.95-7.61-2.41,1.32,5.96,11.45-2.72,1.47-7.84-15.04h0ZM17.2,63.35c-.38-.16-.78-.24-1.19-.23-.24,0-.48.03-.71.07l2.14-4.28,10.39,5.44,5.08-10.09,2.79,1.46-6.91,13.71-11.58-6.08ZM29.13,43.33c-.5-.36-1.09-.58-1.71-.62l11.55-12.56,2.24,2.15-8.32,9.03,2.67,2.57,5.79-6.27,2.24,2.15-5.78,6.28,3.46,3.32-2.73,2.96-9.41-9.01h0ZM144.71,48.24l5.95-8.06-10.83,2.54-.18-.16,1.42-11.31-7.17,6.91-2.93-2.74,9.36-9.09c.45-.5.71-1.14.73-1.82l.43.4,3.52,3.29-1.15,9.85,9.45-2.12,3.36,3.13-9.03,11.91-2.92-2.72h0ZM49.64,24.54v-.03c-.1-.58-.47-1.09-.99-1.38l4.97-2.84,13.99,9.04-3.47,1.99-2.5-1.63-8.34,4.8.09,3.02-3.47,2-.27-14.97h0ZM53.21,30.93l5.5-3.16-5.65-3.67.15,6.83ZM121.5,30.83c-1.53-.01-3.04-.29-4.48-.82-5.48-1.97-8.38-6.53-6.89-10.86,1.04-3.02,3.88-4.82,7.61-4.82,1.51,0,3,.28,4.42.8,2.56.92,4.68,2.48,5.97,4.4,1.33,1.87,1.68,4.26.94,6.43-1.05,3.04-3.88,4.85-7.57,4.85h0s0,0,0,0ZM118.25,17.77c-2.14,0-3.66.99-4.28,2.77-.9,2.6.72,5.07,4.13,6.29.91.34,1.87.52,2.85.54,2.14,0,3.66-.99,4.28-2.79.89-2.58-.74-5.05-4.16-6.28-.9-.34-1.86-.52-2.82-.53ZM84.88,12.1c-.06-.63-.31-1.23-.72-1.72h.7l12.11-.1c3.41,0,5.63,2.18,5.66,5.56.02,2.14-.94,3.84-2.63,4.65l-.41.2,3.35,4.43-4.43.04-2.91-4.11-6.66.06.04,4.14-3.97.03-.13-13.17ZM88.86,13.49l.04,4.45,7.69-.07c1.32,0,2.15-.86,2.14-2.21,0-1.35-.86-2.24-2.11-2.24l-7.75.07Z"/>
      <path class="cls-1" d="M91.73,61.69l.21-.2-.21-.2c-2.83-2.74-4.04-5.42-5-7.57-.69-1.53-1.28-2.85-2.27-3.79-1.03-.98-2.4-1.51-3.82-1.49-.6,0-1.2.08-1.79.22l-.35.08.22.4c.33.61.93,1.74,1.99,2.06.09.03.18.04.27.04.09,0,.17,0,.26-.02h.2s.06,0,.09,0c1.15.66,1.75,5.55,1.75,7.99,0,.42-.17.61-.56.61-.44-.02-.85-.19-1.17-.48-.7-.74-1.68-1.16-2.7-1.14-1.72,0-3.54,1.16-3.62,3.1v.39c.07,1.94,1.9,3.1,3.62,3.1,1.02.02,1.99-.39,2.69-1.13.33-.29.75-.47,1.19-.49.39,0,.56.18.56.6,0,2.43-.6,7.32-1.75,7.99-.03,0-.06,0-.1,0h-.46c-.09,0-.19,0-.28.04-1.06.33-1.67,1.45-1.99,2.06l-.22.41.35.08c.58.14,1.18.22,1.78.22,1.42.02,2.79-.51,3.82-1.49.99-.94,1.58-2.26,2.27-3.79.97-2.17,2.17-4.86,5-7.59h0ZM93.33,30.62c-34.59,0-62.63,28.04-62.63,62.63s28.04,62.63,62.63,62.63,62.63-28.04,62.63-62.63-28.04-62.63-62.63-62.63ZM51.5,135.45c-8.97-8.88-14.88-20.39-16.85-32.86h16.85v32.86ZM51.5,83.5h-16.78c2.04-12.31,7.91-23.66,16.78-32.43v32.43h0ZM109.39,148.96c-.68.44-4.39,3.07-11.3,3.52h-.15c-1.53.12-3.07.18-4.61.17-7.8,0-15.53-1.52-22.73-4.51v-45.57h16.15c2.19,4.56,6.11,8.06,10.89,9.71l-.4.19c-5.04,2.41-8.26,7.49-8.3,13.08,0,7.85,6.5,14.48,14.2,14.48h6.58c2.02.04,3.65,1.68,3.67,3.7,0,1.73-1.35,3.48-4.01,5.21h0,0ZM118.4,75.47h-14.6c-6.15,0-11.91,2.99-15.44,8.02h-17.76v-45.16c16.31-6.74,34.78-5.9,50.41,2.3l.07.05c1.64.86,2.28,2.88,1.42,4.52-.58,1.11-1.73,1.8-2.97,1.8h-7.39c-2.25,0-4.01.58-5.39,1.78-.72.65-1.34,1.41-1.82,2.26-.6.97-.76,1.09-2.28,1.09l-13.88.02c.05.11.1.23.16.35,1.05,2.38,2.49,5.63,6.38,8.83l.33.26-.35.2s-4.54,2.67-7.04,10.71h30.18c.82,0,1.48.67,1.48,1.49,0,.39-.16.76-.43,1.04-.28.28-.65.43-1.05.43h0s0,0,0,0ZM124.3,144v-.03l.37-.79c2.47-5.19.95-11.4-3.64-14.85l-.37-.26c9.65-.17,17.34-8.12,17.17-17.77-.13-7.61-5.17-14.26-12.46-16.44,13.97-4.78,21.58-19.82,17.17-33.9,9.11,13.46,12.31,30.05,8.86,45.93-3.45,15.88-13.24,29.65-27.1,38.12Z"/>
      <path class="cls-1" d="M93.25,0C41.75,0,0,41.75,0,93.25s41.75,93.25,93.25,93.25,93.25-41.75,93.25-93.25c0-51.5-41.74-93.25-93.25-93.25ZM93.25,182.77c-49.44,0-89.52-40.08-89.52-89.52S43.82,3.73,93.25,3.73s89.52,40.08,89.52,89.52-40.07,89.52-89.52,89.52Z"/>
      <path class="cls-1" d="M91.72,61.69l.21-.2-.21-.2c-2.83-2.74-4.04-5.42-5-7.57-.69-1.53-1.28-2.85-2.27-3.79-1.03-.98-2.4-1.51-3.82-1.49-.6,0-1.2.08-1.79.22l-.35.08.22.4c.33.61.93,1.74,1.99,2.06.09.03.18.04.27.04.09,0,.17,0,.26-.02h.2s.06,0,.09,0c1.15.66,1.75,5.55,1.75,7.99,0,.42-.17.61-.56.61-.44-.02-.85-.19-1.17-.48-.7-.74-1.68-1.16-2.7-1.14-1.72,0-3.54,1.16-3.62,3.1v.39c.07,1.94,1.9,3.1,3.62,3.1,1.02.02,1.99-.39,2.69-1.13.33-.29.75-.47,1.19-.49.39,0,.56.18.56.6,0,2.43-.6,7.32-1.75,7.99-.03,0-.06,0-.1,0h-.46c-.09,0-.19,0-.28.04-1.06.33-1.67,1.45-1.99,2.06l-.22.41.35.08c.58.14,1.18.22,1.78.22,1.42.02,2.79-.51,3.82-1.49.99-.94,1.58-2.26,2.27-3.79.97-2.17,2.17-4.86,5-7.59h0Z"/>
    </g>
  </g>
</svg>