<?xml version="1.0" encoding="UTF-8"?>
<svg id="Capa_2" data-name="Capa 2" xmlns="http://www.w3.org/2000/svg" viewBox="0 0 174.62 169.5">
  <g id="Capa_2-2" data-name="Capa 2">
    <path d="M23.29,169.19h-14.13c-2.27,0-4.58-.92-6.31-2.5-1.85-1.66-2.85-3.85-2.85-6.2s1-4.5,2.85-6.2c1.73-1.58,4.04-2.5,6.31-2.5h14.13v3.43h-13.94c-3.04,0-5.43,2.46-5.43,5.24s2.35,5.24,5.43,5.24h13.94v3.5ZM61.4,151.83h-23.52v3.43h9.89v13.94h3.73v-13.94h9.89v-3.43ZM29.6,151.83h3.73v17.32h-3.73v-17.32ZM111.06,169.5h-7.58c-4.85,0-9.16-3.43-9.16-8.82s4.43-9.16,9.47-9.16h6.93c5.04,0,9.47,3.43,9.47,9.16.04,5.39-4.23,8.82-9.12,8.82ZM103.82,154.91c-3.16,0-5.58,2.58-5.58,5.74,0,2.96,2.27,5.43,5.24,5.43h7.58c2.96,0,5.24-2.43,5.24-5.43,0-3.16-2.43-5.74-5.58-5.74h-6.89ZM133.66,149.83h-5.39c-.73,0-1.31-.58-1.31-1.31s.58-1.31,1.31-1.31h5.39c.73,0,1.31.58,1.31,1.31-.04.73-.62,1.31-1.31,1.31ZM143.44,149.83h-5.39c-.73,0-1.31-.58-1.31-1.31s.58-1.31,1.31-1.31h5.39c.73,0,1.31.58,1.31,1.31s-.62,1.31-1.31,1.31ZM146.4,155.25v-3.43h-21.1v17.36h21.1v-3.43h-17.36v-3.54h15.17v-3.43h-15.17v-3.54h17.36ZM80.53,162.3h3.35c2.89,0,5.7-1.31,5.7-5.08,0-3.39-2.81-5.39-5.7-5.39h-18.02v17.32h3.73v-13.9h14.09c1.15,0,1.96,1.15,1.96,2.12s-.85,2.12-1.96,2.12h-10.74v1.19l11.9,8.43h5.5l-9.82-6.81ZM167,151.83h-15.28v17.32h3.73v-13.9h10.93c2.58,0,4.66,2.08,4.66,4.66v9.28h3.58v-9.7c0-4.23-3.43-7.66-7.62-7.66h0ZM124.03,19.09C114.26,6.78,101.24,0,87.31,0s-26.95,6.78-36.73,19.09c-9.59,12.13-14.9,28.22-14.9,45.27s5.27,33.15,14.9,45.27c9.78,12.32,22.79,19.09,36.73,19.09s26.95-6.78,36.73-19.09c9.59-12.13,14.9-28.22,14.9-45.27s-5.31-33.15-14.9-45.27h0ZM87.31,5.77c24.79,0,45.04,25.33,45.77,56.82l-45.77-34.22-45.77,34.22c.73-31.49,20.98-56.82,45.77-56.82h0ZM132.12,76.65c-.58,3.54-1.42,6.97-2.5,10.28l-42.31-31.61-42.31,31.61c-1.08-3.27-1.92-6.74-2.5-10.28l44.81-33.49,44.81,33.49ZM87.31,122.99c-15.48,0-29.18-9.85-37.46-24.95l37.46-28.03,37.46,28.03c-8.28,15.09-21.98,24.95-37.46,24.95h0Z"/>
  </g>
</svg>