<?xml version="1.0" encoding="UTF-8"?>
<svg id="Capa_2" data-name="Capa 2" xmlns="http://www.w3.org/2000/svg" viewBox="0 0 186.5 64.35">
  <defs>
    <style>
      .cls-1 {
        fill-rule: evenodd;
      }
    </style>
  </defs>
  <g id="Capa_2-2" data-name="Capa 2">
    <path class="cls-1" d="M154.12,0c-7.4-.01-14.57,2.54-20.29,7.23C128.07,2.54,120.86-.01,113.44,0c-7.4-.03-14.58,2.53-20.29,7.23C87.57,2.72,80.53,0,72.85,0c-7.4-.01-14.57,2.54-20.29,7.23C46.99,2.72,39.95,0,32.27,0,14.4,0,0,14.36,0,32.17s14.4,32.17,32.27,32.17c7.68,0,14.82-2.73,20.29-7.23,5.57,4.5,12.62,7.23,20.29,7.23s14.82-2.72,20.29-7.23c5.76,4.69,12.97,7.24,20.39,7.23,7.78,0,14.82-2.72,20.39-7.23,5.57,4.5,12.62,7.23,20.29,7.23,17.87,0,32.27-14.35,32.27-32.17C186.39,14.46,171.99,0,154.12,0ZM133.83,46.64c-3.02-4.22-4.64-9.28-4.62-14.46,0-5.34,1.68-10.37,4.62-14.46,3.02,4.22,4.64,9.28,4.63,14.46,0,5.45-1.79,10.37-4.63,14.46ZM93.15,46.64c-3.02-4.22-4.64-9.28-4.63-14.46,0-5.34,1.68-10.37,4.63-14.46,3.02,4.22,4.64,9.28,4.62,14.46,0,5.45-1.79,10.37-4.62,14.46ZM52.46,46.64c-3.02-4.22-4.64-9.28-4.63-14.46,0-5.34,1.68-10.37,4.63-14.46,3.02,4.22,4.64,9.28,4.62,14.46,0,5.45-1.79,10.37-4.62,14.46ZM7.04,32.17c0-13.73,11.14-24.94,25.02-24.94,5.51-.02,10.87,1.79,15.24,5.14-4.31,5.45-6.83,12.26-6.83,19.81s2.52,14.36,6.83,19.81c-4.2,3.25-9.46,5.14-15.24,5.14-13.77,0-25.02-11.11-25.02-24.94ZM57.5,51.98c4.31-5.45,6.83-12.26,6.83-19.81s-2.52-14.36-6.83-19.81c4.2-3.25,9.46-5.14,15.24-5.14s11.04,1.89,15.24,5.14c-4.31,5.45-6.83,12.26-6.83,19.81s2.52,14.36,6.83,19.81c-4.2,3.25-9.46,5.14-15.24,5.14s-11.04-1.89-15.24-5.14ZM98.19,51.98c4.31-5.45,6.83-12.26,6.83-19.81s-2.52-14.36-6.83-19.81c4.2-3.25,9.46-5.14,15.24-5.14,5.51-.02,10.87,1.79,15.24,5.14-4.31,5.45-6.83,12.26-6.83,19.81s2.52,14.36,6.83,19.81c-4.21,3.25-9.46,5.14-15.24,5.14-5.51.02-10.87-1.79-15.24-5.14ZM154.12,57.12c-5.51.02-10.87-1.79-15.24-5.14,4.31-5.45,6.83-12.26,6.83-19.81s-2.52-14.36-6.83-19.81c4.21-3.25,9.46-5.14,15.24-5.14,13.77,0,25.02,11.11,25.02,24.94s-11.25,24.94-25.02,24.94Z"/>
  </g>
</svg>