<?xml version="1.0" encoding="UTF-8"?>
<svg id="Capa_2" data-name="Capa 2" xmlns="http://www.w3.org/2000/svg" viewBox="0 0 284.15 39.09">
  <defs>
    <style>
      .cls-1 {
        fill: #08184e;
      }
    </style>
  </defs>
  <g id="Capa_2-2" data-name="Capa 2">
    <path class="cls-1" d="M109.14,5.52v10.69h-12.11V5.53h-6.68v28.05h6.68v-11.28h12.11v11.28h6.68V5.52h-6.69ZM140.29,5.52l-6.99,11.11-6.98-11.11h-7.88l11.53,18.34v9.72h6.67v-9.72l11.53-18.34h-7.89ZM169.64,5.52v20.56c0,.78-.58,1.41-1.41,1.41h-10.7V5.53h-6.68v28.05h19.73c1.75,0,3.17-.53,4.2-1.55,1.02-1.03,1.54-2.44,1.54-4.19V5.52h-6.68ZM202.24,5.52h-19.73v28.05h6.67V11.59h10.72c.86,0,1.4.68,1.4,1.4v20.58h6.68V11.26c0-1.75-.53-3.17-1.54-4.19-1.04-1.03-2.44-1.54-4.2-1.54M233.89,5.52h-19.73v28.05h19.73c1.75,0,3.16-.53,4.18-1.55,1.03-1.03,1.55-2.44,1.55-4.19V11.26c0-1.75-.51-3.17-1.55-4.19-1.02-1.03-2.43-1.54-4.18-1.54M232.95,13.04v12.99c.03.77-.58,1.42-1.36,1.45-.02,0-.04,0-.07,0h-10.71v-15.89h10.66c.88,0,1.46.61,1.46,1.45M251.26,5.52c-1.75,0-3.17.51-4.19,1.54-1.03,1.03-1.54,2.44-1.54,4.19v22.32h6.65v-8.68h12.13v8.68h6.67V5.52h-19.72ZM264.31,11.59v7.23h-12.13v-5.81c0-.69.54-1.42,1.43-1.42h10.7ZM277.48,33.57h6.68V5.52h-6.68v28.05ZM38.16,39.09c21.08,0,38.17-8.75,38.17-19.54S59.23,0,38.16,0,0,8.74,0,19.55s17.08,19.53,38.16,19.53M45.35,29.49c-.64,1.48-1.74,4.63-4.25,5.89-.8.37-1.67.56-2.55.58h-.39c-7.04,0-13.6-.98-19.08-2.65l-.21-.08c-.51-.17-.77-.4-.77-.7,0-.25.13-.44.32-.62l.34-.3c1.27-1.05,5.09-3.82,12.27-6.58,2.52-.96,5.68-2.16,8.98-2.86,1.94-.4,9.12-1.5,5.33,7.32M64.62,9.79c.13-.23.32-.43.64-.45.18-.02.42.02.79.26,4.48,2.75,7.14,6.2,7.14,9.94,0,6.73-8.66,12.52-21.05,15.06-.8.16-1.33.15-1.5-.05-.13-.12-.16-.34,0-.61.09-.16.2-.32.33-.46,6.75-7.95,11.89-19.69,13.34-23.07.12-.23.22-.47.31-.63M31.09,9.55c.64-1.47,1.74-4.62,4.25-5.88.76-.38,1.71-.56,2.54-.58h.38c7.05,0,13.6.97,19.1,2.65.04.02.17.06.21.08.5.17.76.4.76.69,0,.25-.13.44-.31.61-.08.08-.19.18-.35.3-1.26,1.06-5.08,3.82-12.27,6.58-2.53.96-5.68,2.16-8.97,2.86-1.94.41-9.13,1.51-5.34-7.31M24.18,4.47c.8-.15,1.32-.15,1.51.05.12.13.15.34,0,.6-.1.16-.21.32-.33.46-6.75,7.96-11.89,19.69-13.35,23.08-.11.23-.22.47-.31.62-.13.23-.31.44-.63.46-.18.02-.43-.04-.8-.26-4.48-2.75-7.13-6.2-7.13-9.93,0-6.74,8.65-12.53,21.05-15.06"/>
  </g>
</svg>