<?xml version="1.0" encoding="UTF-8"?>
<svg id="Capa_2" data-name="Capa 2" xmlns="http://www.w3.org/2000/svg" viewBox="0 0 217.42 51.13">
  <defs>
    <style>
      .cls-1 {
        fill: #05141f;
      }
    </style>
  </defs>
  <g id="Capa_2-2" data-name="Capa 2">
    <path class="cls-1" d="M126.15,45.35c0,.41.11.64.38.64.19,0,.34-.08.53-.19L194.78,1.76c1.2-.79,2.29-1.2,3.9-1.2h14.9c2.29,0,3.83,1.54,3.83,3.83v28.42c0,3.42-.75,5.41-3.83,7.25l-18.06,10.85c-.23.15-.45.23-.6.23-.23,0-.41-.15-.41-.79V17.16c0-.38-.11-.64-.38-.64-.19,0-.34.08-.53.19l-49.52,32.17c-1.39.9-2.52,1.16-3.79,1.16h-32.85c-2.29,0-3.83-1.54-3.83-3.83V5.29c0-.3-.15-.56-.38-.56-.19,0-.34.08-.53.19l-32.66,19.64c-.34.19-.41.38-.41.53s.04.26.3.49l23.31,23.31c.3.3.53.56.53.79,0,.26-.34.41-.75.41h-21.1c-1.65,0-2.93-.26-3.83-1.16l-14.15-14.15c-.15-.15-.26-.23-.41-.23-.11,0-.3.08-.45.15l-23.65,14.23c-1.43.86-2.4,1.13-3.83,1.13H3.83c-2.29,0-3.83-1.54-3.83-3.83v-27.89c0-3.45.75-5.41,3.83-7.25L22,.15c.19-.11.34-.15.49-.15.26,0,.41.3.41.9v37.32c0,.38.11.56.38.56.15,0,.34-.11.53-.23L85.19,1.65c1.46-.86,2.37-1.13,4.05-1.13h33.04c2.29,0,3.83,1.54,3.83,3.83l.04,41h0Z"/>
  </g>
</svg>