<?xml version="1.0" encoding="UTF-8"?>
<svg id="Capa_2" data-name="Capa 2" xmlns="http://www.w3.org/2000/svg" viewBox="0 0 276.16 96.62">
  <defs>
    <style>
      .cls-1 {
        fill: #252525;
      }
    </style>
  </defs>
  <g id="Capa_2-2" data-name="Capa 2">
    <g>
      <g>
        <path class="cls-1" d="M9.89,75.67h16.55v-4.14H6.47c-4.14,0-6.38,1.44-6.38,6.65,0,0-.09,2.97-.09,5.85s.09,5.85.09,5.85c0,5.13,2.25,6.56,6.38,6.56h20.5v-4.23H9.89c-1.17,0-1.44-.27-1.44-1.44v-13.67c0-1.08.27-1.44,1.44-1.44"/>
        <polyline class="cls-1" points="51.71 71.53 51.71 81.34 38.31 81.34 38.31 71.53 29.95 71.53 29.95 96.53 38.31 96.53 38.31 85.38 51.71 85.38 51.71 96.53 60.07 96.53 60.07 71.53 51.71 71.53"/>
        <path class="cls-1" d="M118.79,71.53l-8.09,20.41c-.18.36-.36.36-.9.36s-.72,0-.9-.36l-8.09-20.41h-30.22c-4.14,0-6.38,1.44-6.38,6.65,0,0-.09,2.97-.09,5.85s.09,5.94.09,5.94c0,5.13,2.25,6.56,6.38,6.56h21.22v-4.23h-17.81c-1.17,0-1.44-.27-1.44-1.44v-5.4h17.63v-4.14h-17.63v-4.14c0-1.17.27-1.44,1.44-1.44h18.97c2.61,6.29,7.28,17.09,7.64,17.99.54,1.26,1.62,2.79,3.78,2.79h7.82c2.16,0,2.97-1.44,3.51-2.79.54-1.26,9.35-22.21,9.35-22.21h-6.29"/>
        <path class="cls-1" d="M189.65,78.19c0-5.22-2.25-6.65-6.38-6.65h-17.54c-4.14,0-6.38,1.44-6.38,6.65,0,0-.09,2.97-.09,5.85s.09,5.94.09,5.94c0,5.13,2.25,6.56,6.38,6.56h17.54c4.14,0,6.38-1.53,6.38-6.56,0,0,.09-3.06.09-5.94s-.09-5.85-.09-5.85M169.15,75.67h10.79c1.17,0,1.44.27,1.44,1.44v13.76c0,1.17-.27,1.44-1.44,1.44h-10.7c-1.17,0-1.44-.27-1.44-1.44v-13.76c-.09-1.17.18-1.44,1.35-1.44Z"/>
        <polyline class="cls-1" points="202.33 92.31 202.33 71.53 193.88 71.53 193.88 96.53 219.78 96.53 219.78 92.31 202.33 92.31"/>
        <path class="cls-1" d="M227.06,71.53c-4.14,0-6.38,1.44-6.38,6.65,0,0-.09,2.97-.09,5.85v5.85c0,5.13,2.25,6.56,6.38,6.56h21.22v-4.23h-17.81c-1.17,0-1.44-.27-1.44-1.44v-5.4h17.63v-4.14h-17.63v-4.05c0-1.17.27-1.44,1.44-1.44h27.79v20.77h8.36v-20.77h9.62v-4.14l-49.1-.09"/>
        <path class="cls-1" d="M146.4,85.83c-.27-.18-.09-.27.09-.27h3.78c2.79,0,5.4-.9,5.58-4.68.18-.99.09-3.51.09-3.51,0-4.14-2.16-5.67-5.31-5.67h-24.64v24.91h8.27v-20.77h12.32c.72,0,.99.18.99.63,0,.54.09,1.62.09,2.52,0,1.08,0,1.89-.09,2.25-.09.45-.45.63-.99.63h-9.89v3.78l12.23,10.88h11.51s-13.85-10.61-14.03-10.7"/>
      </g>
      <path class="cls-1" d="M167.82,12.98V0h-59.42v12.98h-44.62l-17.11,33.59h61.73v12.97h59.42v-12.97h44.74l17.11-33.59h-61.85ZM160.3,39.05v12.96h-44.38v-12.96h-49.11l9.45-18.53v-.03h39.66V7.52h44.38v12.98h49.23l-9.46,18.56h-39.77Z"/>
    </g>
  </g>
</svg>