<?xml version="1.0" encoding="UTF-8"?>
<svg id="Capa_2" data-name="Capa 2" xmlns="http://www.w3.org/2000/svg" viewBox="0 0 217.42 137.54">
  <g id="Capa_2-2" data-name="Capa 2">
    <g>
      <g>
        <path d="M214.8,133.09c-1.37-.04-2.24-.74-2.97-1.86-3.83-5.91-7.71-11.79-11.56-17.7-.67-1.02-1.54-1.48-2.76-1.48-5.98.03-11.95.01-17.93.01-.15,0-.3.01-.45.02v3.29c.15.02.29.05.43.06,1.34.14,2.67.28,4.01.43.77.09,1.27.83,1.05,1.58-.07.24-.2.47-.33.68-1.48,2.41-2.97,4.81-4.46,7.22-1.31,2.12-2.62,4.23-3.93,6.35-.45.73-1.05,1.19-1.93,1.28-.9.08-1.8.22-2.7.31-.28.03-.39.12-.38.42.02.88,0,1.76,0,2.63,0,.11.03.21.04.31h15.71c0-1.05,0-2.08-.01-3.11,0-.08-.2-.21-.32-.22-.46-.06-.93-.07-1.39-.13-.56-.07-1.14-.11-1.66-.3-.75-.27-.93-.93-.53-1.62.37-.63.75-1.26,1.16-1.88.09-.13.31-.25.47-.25,4.84-.01,9.69-.01,14.53,0,.16,0,.38.11.48.24.35.48.68.97.99,1.48.14.23.26.48.32.73.13.61-.26,1.11-1.05,1.3-.49.12-1.01.15-1.51.22-.63.08-1.26.15-1.87.23v3.32h.54c5.72,0,11.44,0,17.16,0,1.16,0,2.32,0,3.48.01v-3.4c-.87-.07-1.74-.18-2.62-.2ZM186.65,124.78c1.56-2.54,3.09-5.02,4.65-7.56,1.66,2.53,3.3,5.02,4.96,7.56h-9.61Z"/>
        <path d="M172.67,122.03c-.62-3.92-2.93-6.56-6.48-8.18-2.87-1.31-5.93-1.75-9.05-1.76-8.13-.03-16.25-.01-24.38-.01-.12,0-.24.02-.37.03v3.28c.12.02.23.05.34.06.83.09,1.66.18,2.49.27,1.27.14,1.81.72,1.82,2,0,.07,0,.14,0,.21,0,4.2,0,8.41,0,12.61,0,.23,0,.45-.02.68-.14,1.12-.65,1.62-1.77,1.76-.94.11-1.88.22-2.82.35-.13.02-.36.15-.36.23-.02,1.03-.02,2.06-.02,3.11.19,0,.32.02.46.02,8.01,0,16.03,0,24.04,0,2.76,0,5.48-.28,8.11-1.19,2.33-.8,4.41-2.01,5.93-4,2.17-2.82,2.61-6.06,2.07-9.46ZM161.11,127.86c-.59,2.54-2.24,3.93-4.87,4.06-2.12.11-4.24.07-6.37.09-1.06,0-2.12,0-3.22,0v-15.17c.14,0,.28-.02.42-.02,2.62,0,5.24-.02,7.86,0,.76,0,1.53.09,2.27.23,2.06.38,3.35,1.64,3.85,3.65.59,2.37.61,4.77.05,7.15Z"/>
        <path d="M130.64,114.97c0,.22-.02.37-.3.4-.96.1-1.91.23-2.87.33-1.13.12-1.7.67-1.8,1.82-.02.24-.02.48-.02.72,0,5.96,0,11.92,0,17.88v.56h-.48c-3.77,0-7.53,0-11.3,0-.17,0-.34,0-.51,0-1.04.02-1.81-.41-2.45-1.25-4.15-5.5-8.33-10.98-12.51-16.46-.09-.12-.19-.24-.33-.43-.01.19-.03.31-.03.43,0,3.92,0,7.84,0,11.76,0,.29.03.59.08.88.16.83.68,1.32,1.52,1.42,1,.12,1.99.25,2.99.35.31.03.4.13.4.44-.02.96,0,1.92,0,2.91h-15.82v-2.12c0-1.2,0-1.19,1.22-1.32.72-.07,1.43-.16,2.15-.26.95-.13,1.48-.7,1.59-1.7.02-.21.02-.42.02-.64,0-4.19,0-8.38,0-12.57,0-.34-.03-.68-.1-1.01-.17-.76-.69-1.2-1.49-1.31-1-.13-2-.23-2.99-.36-.14-.02-.37-.17-.37-.26-.03-1.02-.02-2.03-.02-3.11h16.59c.16,0,.31,0,.47,0,1.13-.04,1.96.4,2.66,1.34,4.11,5.5,8.27,10.96,12.41,16.43.09.12.19.25.33.43.02-.17.04-.27.04-.37,0-3.96,0-7.93,0-11.89,0-.27-.02-.54-.08-.8-.17-.82-.66-1.3-1.49-1.4-1-.13-1.99-.25-2.99-.35-.29-.03-.42-.1-.4-.43.06-.89.09-1.78.12-2.67,0-.22.03-.37.32-.37,5.1,0,10.19,0,15.29.01.03,0,.06.01.12.03.01.09.04.2.04.31,0,.88,0,1.76,0,2.63Z"/>
        <path d="M82.63,116.03c-1.7-1.63-3.75-2.66-5.97-3.38-3.47-1.12-7.06-1.42-10.68-1.45,0-.03,0-.07-.01-.11-2.07.18-4.15.29-6.21.54-2.75.34-5.4,1.08-7.85,2.44-5.66,3.12-7.07,8.84-5.61,13.83.99,3.36,3.29,5.61,6.36,7.13,3.31,1.64,6.87,2.2,10.51,2.42,2.59.15,5.18.1,7.76-.18,2.86-.32,5.64-.91,8.24-2.19,4.35-2.15,6.84-5.56,6.93-10.51.06-3.33-1.03-6.22-3.46-8.55ZM74.26,127.99c-.55,2.24-2.01,3.72-4.22,4.35-2.73.77-5.49.78-8.21,0-2.21-.63-3.64-2.11-4.23-4.35-.61-2.32-.62-4.65-.04-6.97.61-2.44,2.19-3.98,4.61-4.61,2.44-.63,4.91-.63,7.36-.06,2.89.67,4.5,2.57,4.97,5.46.14.86.18,1.74.29,2.88-.15.94-.24,2.15-.53,3.3Z"/>
        <path d="M44.74,136.72h-19.74v-3.29c.83-.1,1.67-.2,2.51-.31.28-.03.56-.06.84-.1.84-.12,1.46-.59,1.5-1.43.08-1.53.02-3.07.02-4.64h-15.04s-.05.05-.05.07c0,1.43-.05,2.86.01,4.29.04,1.07.67,1.61,1.74,1.73.97.1,1.94.22,2.91.35.11.01.28.14.28.22.02,1.03.01,2.06.01,3.11H.01v-3.3c.57-.07,1.14-.14,1.71-.21.52-.06,1.04-.12,1.56-.18.99-.12,1.55-.7,1.64-1.69.02-.24.03-.48.03-.72,0-4.13,0-8.27,0-12.4,0-.31,0-.63-.06-.93-.16-.9-.69-1.38-1.6-1.49-1-.12-2-.23-2.99-.35-.1-.01-.19-.04-.3-.07v-3.27h19.74v1.9c0,.35-.01.71,0,1.06.01.25-.08.35-.33.38-.96.1-1.91.23-2.87.33-1.08.12-1.7.65-1.74,1.72-.06,1.44-.01,2.88-.01,4.36h15.21c.01-.13.03-.24.03-.35,0-1.3.02-2.61-.03-3.91-.04-1.14-.61-1.69-1.73-1.82-1.08-.13-2.16-.26-3.26-.4v-3.29h19.75c0,1.05,0,2.08-.01,3.11,0,.08-.2.21-.32.23-.94.13-1.88.24-2.82.35-1.18.13-1.74.7-1.82,1.89-.01.18,0,.37,0,.55,0,4.13,0,8.27,0,12.4,0,.21,0,.43.02.64.12,1.13.67,1.67,1.79,1.79.96.1,1.91.22,2.87.35.11.02.3.16.3.24.02,1.02.01,2.03.01,3.09Z"/>
      </g>
      <path d="M168.08,37.5c-.03-3.93-.22-7.87-.38-11.8-.11-2.66-.4-5.3-1.1-7.88-1.17-4.3-3.31-7.97-6.93-10.69-2.41-1.81-5.13-2.97-8-3.8-3.85-1.11-7.8-1.68-11.78-2.01-4.94-.41-9.88-.82-14.83-1-6.14-.23-12.29-.35-18.43-.31-6.3.04-12.6.28-18.89.55-4.94.21-9.86.64-14.75,1.34-3.36.48-6.68,1.17-9.86,2.45-3.19,1.28-6,3.11-8.18,5.81-2.62,3.25-3.97,7.04-4.46,11.11-.35,2.86-.53,5.75-.63,8.63-.27,8.06.01,16.11.79,24.13.46,4.76.93,9.52,1.76,14.23.54,3.08,1.1,6.15,2.05,9.14.83,2.61,1.81,5.16,3.32,7.45,2.22,3.36,5.34,5.61,9.05,7.08,3.93,1.56,8.04,2.43,12.23,2.84,4.27.42,8.55.74,12.83.93,5.54.25,11.1.32,17.25.49,5.76-.16,12.13-.3,18.5-.53,4.75-.17,9.5-.51,14.2-1.28,3.19-.53,6.33-1.22,9.33-2.45,3.98-1.63,7.25-4.12,9.44-7.87,1.49-2.54,2.52-5.28,3.26-8.12,1.74-6.69,2.58-13.52,3.23-20.38.28-2.97.55-5.95.71-8.93.17-3.04.29-6.08.27-9.12ZM71.34,88.8c-4.88-1.74-8.22-5.04-10.18-9.81-1.38-3.35-2.23-6.85-2.88-10.4-.94-5.2-1.44-10.45-1.89-15.71-.63-7.39-.74-14.78-.46-22.19.12-3.32.32-6.64.91-9.93.47-2.58,1.29-5.04,2.75-7.25,1.87-2.82,4.49-4.65,7.6-5.88,2.06-.81,4.2-1.3,6.36-1.67.16,2.86.32,5.72.49,8.58.21,3.7.43,7.41.65,11.11.18,3.09.36,6.19.54,9.28.22,3.61.43,7.22.65,10.83.18,2.98.35,5.97.54,8.95.24,3.78.49,7.56.73,11.34.21,3.12.41,6.25.63,9.37.24,3.47.49,6.93.73,10.39.11,1.57.23,3.14.34,4.71-2.54-.37-5.06-.87-7.51-1.74ZM118.83,91.93c-3.33.08-6.65.12-10.96.2-4.31-.11-9.61-.21-14.9-.4-.58-.02-1.16-.04-1.74-.07.7-3.01,1.41-6.01,2.16-9,.73-2.93,1.56-5.81,2.7-8.59,1.26-3.08,3.4-4.78,6.4-5.24,4.24-.65,8.48-.74,12.73-.02,2.97.5,5.19,2.07,6.4,5.17.67,1.7,1.35,3.42,1.82,5.2,1.09,4.14,2.09,8.32,3.11,12.48-2.57.13-5.14.21-7.71.27ZM135.69,5.79c-2.36,12.11-4.79,24.2-7.66,36.17-.83,3.48-1.7,6.95-3.05,10.23-1.51,3.68-3.87,6.36-7.39,7.66-1.9.7-3.86.95-5.85,1.02-3.18.11-6.37.19-9.53-.41-4.11-.78-7.21-3.15-9.15-7.28-1.1-2.33-1.87-4.8-2.49-7.32-2.27-9.19-4.25-18.46-6.12-27.75-.89-4.4-1.76-8.8-2.63-13.21,1.99-.19,3.97-.35,5.97-.49,9.05-.6,18.1-.79,27.17-.62,4.97.09,9.93.34,14.89.64,2.01.13,4.02.3,6.02.5-.06.29-.11.57-.17.85ZM161.91,42.6c-.04,3.38-.29,6.76-.56,10.13-.27,3.43-.62,6.85-1.04,10.26-.61,4.94-1.42,9.85-3.12,14.57-.77,2.12-1.75,4.14-3.15,5.93-2.15,2.75-5.01,4.45-8.27,5.54-2.26.75-4.58,1.19-6.92,1.53.13-1.86.27-3.72.41-5.58.24-3.42.48-6.84.71-10.26.25-3.62.49-7.25.73-10.87.22-3.29.42-6.59.63-9.89.25-4,.49-8,.73-12,.21-3.56.42-7.13.63-10.69.24-4.14.49-8.28.73-12.42.22-3.78.44-7.56.66-11.35.03-.51.06-1.02.09-1.55,1.99.34,3.95.82,5.85,1.54,3.03,1.14,5.67,2.8,7.65,5.42,1.67,2.21,2.61,4.74,3.18,7.42.58,2.78.84,5.6.92,8.43.13,4.61.22,9.23.17,13.84Z"/>
    </g>
  </g>
</svg>