<?xml version="1.0" encoding="UTF-8"?>
<svg id="Capa_2" data-name="Capa 2" xmlns="http://www.w3.org/2000/svg" viewBox="0 0 160.96 176.92">
  <defs>
    <style>
      .cls-1 {
        fill: #fff;
      }
    </style>
  </defs>
  <g id="Capa_2-2" data-name="Capa 2">
    <g>
      <path d="M.6,6.96C24.24,2.86,47.99.54,71.93.08c29.67-.56,59.11,1.81,88.37,6.86.05.33.11.58.12.83.35,10.15.65,20.3.48,30.46-.17,10.46-.82,20.9-2.31,31.27-1.93,13.45-5.17,26.56-10.52,39.09-10.57,24.72-27.4,44.15-49.82,58.82-5.38,3.52-11.03,6.57-16.86,9.28-.65.3-1.17.32-1.82,0-35.67-17.06-59.91-44.12-71.73-82.03-2.61-8.38-4.32-16.97-5.55-25.66C.45,55.96-.11,42.83.02,29.67c.07-7.16.32-14.32.49-21.48,0-.38.06-.77.09-1.24ZM3.87,10.27c0,.66.01,1.13,0,1.61-.09,3.51-.18,7.03-.29,10.54-.34,11.9-.22,23.78.78,35.65.68,8.01,1.78,15.95,3.45,23.81,2.59,12.16,6.5,23.86,12.35,34.85,13.48,25.31,33.47,43.79,59.26,56.14.8.38,1.44.31,2.2-.05,6.34-2.97,12.42-6.4,18.18-10.38,19.06-13.15,33.82-29.99,43.63-51.05,6.13-13.17,9.76-27.06,11.81-41.39,1.42-9.94,2.15-19.94,2.2-29.97.05-8.16-.13-16.32-.23-24.48-.02-1.73-.14-3.45-.21-5.28-24.77-4.31-49.68-6.52-74.76-6.62-26.26-.11-52.34,2.11-78.37,6.63Z"/>
      <path class="cls-1" d="M3.87,10.27C29.9,5.75,55.98,3.53,82.24,3.64c25.08.1,49.98,2.31,74.76,6.62.08,1.83.19,3.56.21,5.28.1,8.16.28,16.32.23,24.48-.06,10.03-.78,20.03-2.2,29.97-2.05,14.34-5.68,28.23-11.81,41.39-9.81,21.06-24.57,37.9-43.63,51.05-5.76,3.98-11.84,7.41-18.18,10.38-.76.36-1.4.43-2.2.05-25.79-12.34-45.77-30.82-59.26-56.14-5.85-10.99-9.76-22.69-12.35-34.85-1.67-7.86-2.77-15.8-3.45-23.81-1-11.87-1.12-23.75-.78-35.65.1-3.51.19-7.03.29-10.54.01-.47,0-.95,0-1.61ZM154.14,12.81c-49.17-8.21-98.19-8.21-147.28,0-.03.53-.07.96-.08,1.38-.1,4.3-.23,8.59-.29,12.89-.14,10.81-.03,21.61,1,32.39.77,8.04,1.93,16.02,3.72,23.9,2.39,10.49,5.8,20.63,10.7,30.22,12.84,25.11,32.2,43.54,57.43,55.95.83.41,1.48.38,2.29-.01,12.9-6.22,24.44-14.38,34.59-24.48,15.45-15.38,25.89-33.68,31.74-54.64,4.32-15.48,6.06-31.32,6.45-47.33.15-6.16.07-12.33.03-18.49-.03-3.86-.19-7.72-.29-11.75Z"/>
      <path d="M154.14,12.81c.1,4.04.26,7.89.29,11.75.04,6.16.12,12.33-.03,18.49-.39,16.01-2.13,31.85-6.45,47.33-5.85,20.96-16.29,39.26-31.74,54.64-10.15,10.1-21.69,18.26-34.59,24.48-.82.39-1.46.42-2.29.01-25.23-12.4-44.59-30.84-57.43-55.95-4.9-9.59-8.32-19.73-10.7-30.22-1.79-7.88-2.96-15.85-3.72-23.9-1.03-10.78-1.14-21.58-1-32.39.06-4.3.19-8.59.29-12.89.01-.42.05-.85.08-1.38,49.09-8.21,98.11-8.21,147.28,0ZM88.55,146.29c.94-1.67,1.77-3.08,2.54-4.53.75-1.4,1.72-2.6,2.94-3.61,7-5.77,13.98-11.56,21-17.3.99-.81,1.64-1.69,1.95-2.94,1.27-5.2,2.09-10.46,2.42-15.8.27-4.34.18-8.67-.27-13-.11-.99-.45-1.84-1-2.64-3.68-5.34-7.87-10.26-12.31-14.97-.52-.55-1.14-.9-1.99-1.04.05.41.07.75.14,1.07.81,3.82,1.66,7.63,2.44,11.45.19.94.62,1.68,1.29,2.34,2.2,2.16,4.25,4.46,6.01,7,.81,1.17,1.3,2.46,1.37,3.88.36,6.73.31,13.44-.42,20.15-.15,1.35-.72,2.29-1.75,3.17-6.34,5.41-12.63,10.87-18.92,16.34-1.61,1.4-3.14,2.87-4.07,4.85-.03.06-.14.08-.23.13-1.12-2.98-1.76-5.96-.81-9.14,1.07-3.57,2-7.18,2.98-10.78.13-.49.24-.99.36-1.48-.09-.04-.17-.07-.26-.11-.19.37-.39.72-.55,1.1-1.24,2.86-2.51,5.72-3.7,8.6-.86,2.08-1.61,4.21-2.42,6.31-.43,1.11-.43,2.16.06,3.27.91,2.11,1.73,4.26,2.6,6.39.14.35.33.68.61,1.27ZM69.13,74.27c-.15.01-.31.02-.46.03.06,1.02.09,2.04.18,3.06.13,1.38.31,2.76.47,4.13.12,1.03-.09,1.98-.64,2.86-.65,1.03-1.23,2.09-1.9,3.1-4.89,7.39-10.25,14.43-15.98,21.18-.87,1.03-1.48,2.11-1.62,3.47-.25,2.41-.52,4.83-.79,7.24-.12,1.08.11,2.07.7,2.98.83,1.27,1.63,2.56,2.53,3.78,4.79,6.5,10,12.66,15.55,18.53,1.74,1.85,3.61,3.5,5.99,4.49.76.32,1.47.74,2.21,1.1.24.11.5.17.76.25.05-.08.11-.16.16-.25-.46-.43-.86-.95-1.39-1.26-1.85-1.1-3.39-2.54-4.81-4.14-5.3-5.98-10.28-12.22-14.85-18.77-.97-1.38-1.83-2.85-2.72-4.28-.52-.83-.77-1.74-.67-2.73.19-1.72.36-3.45.58-5.17.12-.94.62-1.67,1.32-2.32,1.56-1.45,3.1-2.91,4.59-4.43,4.31-4.38,3.35-2.78,6.14-8.73,2.15-4.59,4.12-9.27,6.17-13.91.34-.77.61-1.56.41-2.39-.62-2.61-1.28-5.21-1.92-7.81ZM77.91,45.58c0,.12.02.25.03.37.68.02,1.35.08,2.03.06,3.94-.14,7.89-.28,11.83-.47,1.42-.07,2.76.13,4.05.73,1.97.91,3.93,1.82,5.93,2.66.78.33,1.64.57,2.48.66,1.64.18,3.3.17,4.93.37.97.12,2,.34,2.83.81,3.48,1.95,6.9,4,10.32,6.04.75.45,1.47.78,2.66.69-2.53-2.41-4.87-4.66-7.21-6.89-.15-.15-.35-.25-.54-.36-5.47-3.09-10.97-6.15-16.69-8.77-1.25-.57-2.53-.88-3.89-.93-2.64-.11-5.29-.25-7.93-.35-7.42-.27-14.83-.06-22.23.5-1.29.1-2.12.6-2.68,1.7-.76,1.5-1.92,2.65-3.2,3.71-2.47,2.06-4.94,4.1-7.68,5.79-.57.35-1.13.71-1.39,1.6,1.25-.7,2.34-1.31,3.44-1.91,4.62-2.49,9.24-4.97,13.85-7.47,1.2-.65,2.45-1.02,3.84-1.05,2.17-.05,4.33-.27,6.5-.3,5.46-.08,10.93-.09,16.4-.12.93,0,1.81.25,2.58.81-6.79.6-13.54,1.16-20.26,2.11ZM31.72,73.92c-.09,1.46-.4,2.72-1.41,3.74-.92.92-1.76,1.92-2.59,2.92-.6.71-.64,1.02-.1,1.73,1.06,1.37,2.17,2.71,3.31,4.02.28.32.75.48,1.23.77.36-1.59.69-2.98.98-4.38.19-.91.65-1.42,1.61-1.6,2.52-.45,5.02-1,7.53-1.49,1.51-.3,3.03-.55,4.72-.86-.4-.48-.65-.82-.94-1.12-.9-.94-1.87-1.82-2.71-2.81-1.03-1.21-2.26-1.79-3.86-1.75-.93.02-1.87-.15-2.8-.24-.03-.08-.06-.17-.09-.25.32-.24.63-.51.98-.71.26-.15.57-.21.85-.31,4.38-1.66,8.76-3.32,13.14-4.98,1.38-.52,2.32-1.49,3.01-2.77-.2,0-.36.05-.47.15-1.53,1.4-3.41,2.01-5.4,2.38-.64.12-1.27.3-1.9.45-.77.19-1.51.23-2.28-.12-.4-.18-.93-.17-1.37-.1-.94.16-1.86.43-2.79.64-.25.06-.52.06-1,.12.79-.81,1.41-1.37,2.27-1.66.9-.3,1.78-.7,2.68-1,.69-.23,1.09-.58,1.13-1.37.04-.82.27-1.63.35-2.44.06-.62.34-1.04.83-1.39,1.08-.8,2.14-1.63,3.2-2.46.3-.24.67-.45.75-1.07-1.61.96-3.03,1.88-4.52,2.67-2.62,1.39-4.76,3.28-6.42,5.75-.47.7-1.16,1.28-1.84,1.8-3.13,2.41-6.3,4.77-9.42,7.19-.89.69-1.69,1.5-2.44,2.34-.9.99-.67,2.13.56,2.97.61-.44,1.24-.89,1.87-1.34.95-.69,1.9-1.35,2.4-2.5.16-.37.64-.6.97-.9ZM99.07,58.68c1.75.19,3.2.45,4.7-.09,1.14-.41,2.37-.53,3.53-.89,1.38-.42,2.54-.13,3.63.77,2.59,2.11,5.2,4.21,7.84,6.25.81.63,1.73,1.15,2.66,1.59,1.73.81,3.5,1.52,5.26,2.27.95.4,1.54,1.09,1.73,2.11.06.34.18.67.23,1.01.52,3.61,1.01,7.22,1.55,10.82.34,2.23-.04,4.31-1.08,6.3-1.32,2.54-2.61,5.09-3.97,7.62-.3.56-.7,1.17-1.22,1.49-1.65,1-2.36,2.39-2.21,4.3.06.69-.07,1.4-.11,2.1.5-.29.77-.61,1.03-.95,3.61-4.86,6.56-10.12,9.19-15.56.22-.46.39-.98.43-1.48.58-6.47.45-12.92-.73-19.33-.17-.91-.56-1.58-1.33-2.12-5.62-3.95-11.51-7.44-17.73-10.37-1.27-.6-2.46-.69-3.75-.13-2.9,1.27-5.82,2.49-8.73,3.74-.26.11-.49.28-.94.55ZM82.82,151.53c.07-1.36-.09-2.62-.68-3.82-.59-1.21-1.09-2.46-1.58-3.71-1.52-3.92-3.05-7.84-4.49-11.79-.32-.87-.49-1.88-.4-2.8.24-2.63.53-5.28,1.02-7.87,1.32-6.94,2.76-13.86,4.15-20.8.31-1.57-.3-3-.64-4.49-.27.35-.44.7-.58,1.05-.81,2.11-1.63,4.21-2.4,6.33-2.38,6.57-4.62,13.18-6.4,19.94-.49,1.86-.35,3.52.42,5.29,3.28,7.53,7.06,14.8,11.09,21.95.14.26.33.49.5.73ZM47.52,60.76c.03.1.06.2.1.31.94,0,1.88.06,2.81-.01,2.11-.16,4.26,0,6.32-.63,2.65-.81,5.3-1.61,7.93-2.48.53-.18,1.13-.57,1.41-1.03,1.43-2.32,2.76-4.7,4.12-7.07.06-.1.05-.24.09-.52-1.88-.07-3.75-.32-5.51.38-2.97,1.19-5.91,2.47-8.82,3.8-.71.33-1.34.93-1.89,1.52-.85.92-1.65,1.9-2.38,2.92-.76,1.06-1.69,1.82-2.94,2.22-.44.14-.83.39-1.25.59ZM47.75,80.91c-.02.09-.03.18-.05.27.38.16.76.32,1.15.47,2.08.76,4.16,1.49,6.24,2.26,1.6.6,2.12,1.92,1.33,3.41-1.43,2.69-3.11,5.22-5.04,7.57-.37.45-.89.87-1.43,1.07-1.87.69-3.78,1.26-5.67,1.91-.65.22-1.17.11-1.66-.35-.61-.56-1.24-1.09-1.87-1.62-.21-.18-.46-.32-.8-.56-.13,1.67-.31,3.11.35,4.6.61,1.38.96,2.87,1.36,4.33.34,1.21.56,2.45.88,3.67.22.86.47,1.06,1.3.87,1.27-.29,2.54-.61,3.74-1.08.63-.25,1.13-.86,1.68-1.31-.4-.18-.69-.17-.96-.11-1.02.22-2.02.49-3.05.67-.9.16-1.07.04-1.24-.85-.25-1.28-.47-2.56-.69-3.84-.2-1.16-.14-1.25,1.06-1.66,2.62-.9,5.25-1.81,7.88-2.69.68-.23,1.28-.53,1.65-1.18,1.93-3.4,3.86-6.79,5.76-10.2.17-.31.3-.8.18-1.1-.43-1.1-.96-2.13-2.29-2.45-2.74-.65-5.47-1.37-8.21-2.02-.51-.12-1.05-.06-1.58-.09ZM90.92,75.59c-.07-.43-.1-.68-.15-.93-.53-2.54-1.06-5.09-1.61-7.63-.21-.97-.26-1.86.47-2.69.46-.51.79-1.14,1.16-1.73,2.12-3.44,2.1-2.43,1.15-6.88-.04-.17-.06-.35-.14-.5-.1-.19-.21-.41-.38-.5-1.06-.57-2.09-1.16-3.42-.88-3.56.76-7.13,1.42-10.7,2.15-1.51.31-2.34,1.29-2.57,2.97.76.14,1.53.24,2.28.43,1.1.28,2.1.13,3.15-.32,2.19-.93,4.45-1.7,6.65-2.61.85-.35,1.6-.26,2.38.06,1.29.55,1.86,2.44,1.05,3.56-.97,1.33-1.96,2.65-2.98,3.94-.45.56-.57,1.1-.34,1.8.84,2.6,1.63,5.21,2.42,7.82.24.79.67,1.38,1.61,1.93ZM49.67,27.86c-3.97.28-7.79.54-11.64.81v-2.8c3.47-.27,6.87-.53,10.32-.8v-1.75c-3.47.25-6.85.49-10.3.74v-2.56c3.92-.3,7.75-.59,11.6-.88.03-.36.07-.61.07-.87,0-.25-.04-.49-.08-.9-4.56.35-9.03.69-13.5,1.03v10.75c4.57-.35,9.04-.69,13.53-1.03v-1.74ZM85.92,26.95c-3.2,0-6.24.01-9.27,0-.95,0-1.31-.39-1.33-1.37-.03-1.34-.01-2.69,0-4.04,0-1.59.21-1.82,1.79-1.82,2.86,0,5.73,0,8.59.01.46,0,.93,0,1.42,0v-1.7c-.29-.03-.5-.07-.7-.07-3.12-.01-6.25-.03-9.37-.02-.47,0-.95.07-1.42.17-1.32.27-2.06.95-2.12,2.27-.09,2.03-.09,4.08,0,6.11.05,1.21.77,1.87,1.97,2.08.55.1,1.12.14,1.68.15,3.17.03,6.33.04,9.5.05.38,0,.75-.05,1.22-.09.05-2.14.09-4.19-.01-6.26h-7.37v1.73h5.43v2.82ZM94.4,19.89c3.97.14,7.81.28,11.71.43v-1.72c-4.55-.22-9.03-.48-13.63-.49,0,3.66-.01,7.14,0,10.68,4.67.18,9.14.35,13.72.52-.03-.69-.05-1.19-.08-1.76-3.98-.16-7.82-.32-11.71-.48v-2.66c1.81,0,3.53,0,5.25,0,1.71.01,3.42.31,5.12.16v-1.7c-3.51-.14-6.91-.28-10.38-.42v-2.57ZM125.56,25.36h0c0-.82,0-1.65,0-2.47,0-.09,0-.17,0-.26-.07-1.42-.69-2.24-2.05-2.67-.41-.13-.84-.23-1.27-.26-2.63-.21-5.27-.41-7.9-.59-.47-.03-.95-.02-1.43.03-1.38.14-2.09.77-2.14,2.14-.08,1.99-.08,3.99,0,5.98.06,1.35.73,2.03,2.05,2.34.59.14,1.19.21,1.8.26,1.9.16,3.8.31,5.7.43,1.04.07,2.08.14,3.11.09,1.35-.07,2.05-.81,2.11-2.16.05-.95,0-1.91,0-2.86ZM19.53,29.09c2.47-.28,4.75-.53,7.02-.81,1.07-.13,2.15-.25,3.2-.48,1.05-.23,1.85-.9,1.98-1.99.14-1.1.13-2.24.02-3.35-.1-1-.8-1.61-1.81-1.76-.47-.07-.95-.09-1.42-.05-2.11.2-4.22.43-6.33.67-1.49.17-2.98.38-4.48.58v10.71c.62-.07,1.15-.14,1.81-.22v-3.3ZM56.21,18.56c-.7.04-1.25.07-1.93.1,0,.57,0,1.04,0,1.51,0,2-.02,3.99,0,5.99.03,2.21.78,2.93,3,3.01.09,0,.17,0,.26,0,2.77-.11,5.55-.18,8.32-.34,2.24-.13,2.95-.94,2.97-3.22.02-2.13,0-4.25,0-6.38,0-.34-.04-.67-.06-1.06h-1.79c-.02.48-.06.91-.06,1.33,0,2.08.01,4.17,0,6.25,0,1.07-.22,1.31-1.29,1.37-2.73.14-5.46.24-8.19.33-.96.03-1.2-.25-1.22-1.26-.02-1.08,0-2.17,0-3.26,0-1.38,0-2.77,0-4.38ZM143.25,21.85c-4.79-.53-9.46-1.05-14.23-1.58v1.77c2.05.23,4.05.46,6.19.7v8.92c.68.09,1.23.16,1.95.26v-8.94c2.13.23,4.08.43,6.09.65v-1.77ZM53.74,89.26c-.1-.09-.19-.19-.29-.28-2.86,2.36-5.73,4.72-8.59,7.09l.12.24c1.54-.54,3.08-1.06,4.61-1.62.23-.08.45-.28.6-.48,1.19-1.64,2.37-3.29,3.55-4.94ZM36.96,85.64c-1.58.39-2.74.97-3.41,2.3.89,1.02,1.67,1.92,2.56,2.94.12-.43.21-.66.24-.91.2-1.36.39-2.73.61-4.34ZM48.31,62.51c-.04.91-.08,1.66-.11,2.42,2.59-.27,3-.73,2.31-2.54-.64.03-1.32.07-2.2.12Z"/>
      <path class="cls-1" d="M88.55,146.29c-.28-.59-.47-.92-.61-1.27-.87-2.13-1.69-4.28-2.6-6.39-.48-1.11-.48-2.17-.06-3.27.81-2.1,1.56-4.23,2.42-6.31,1.19-2.89,2.46-5.74,3.7-8.6.16-.38.37-.73.55-1.1.09.04.17.07.26.11-.12.49-.22.99-.36,1.48-.99,3.6-1.92,7.21-2.98,10.78-.95,3.18-.32,6.16.81,9.14.09-.05.2-.07.23-.13.92-1.98,2.46-3.45,4.07-4.85,6.29-5.47,12.58-10.93,18.92-16.34,1.03-.88,1.6-1.81,1.75-3.17.74-6.71.79-13.42.42-20.15-.08-1.41-.56-2.7-1.37-3.88-1.76-2.54-3.81-4.84-6.01-7-.67-.66-1.1-1.4-1.29-2.34-.79-3.82-1.63-7.63-2.44-11.45-.07-.33-.09-.66-.14-1.07.86.14,1.47.49,1.99,1.04,4.45,4.71,8.63,9.63,12.31,14.97.55.8.89,1.65,1,2.64.46,4.33.54,8.66.27,13-.33,5.34-1.16,10.6-2.42,15.8-.31,1.26-.96,2.13-1.95,2.94-7.03,5.74-14.01,11.53-21,17.3-1.22,1.01-2.19,2.21-2.94,3.61-.77,1.45-1.6,2.87-2.54,4.53Z"/>
      <path class="cls-1" d="M69.13,74.27c.64,2.6,1.3,5.2,1.92,7.81.2.84-.07,1.63-.41,2.39-2.05,4.64-4.02,9.32-6.17,13.91-2.79,5.95-1.83,4.36-6.14,8.73-1.49,1.51-3.03,2.98-4.59,4.43-.7.65-1.2,1.38-1.32,2.32-.22,1.72-.39,3.45-.58,5.17-.11.99.15,1.9.67,2.73.89,1.44,1.75,2.9,2.72,4.28,4.58,6.55,9.56,12.78,14.85,18.77,1.42,1.6,2.96,3.04,4.81,4.14.53.31.93.84,1.39,1.26-.05.08-.11.16-.16.25-.25-.08-.52-.13-.76-.25-.74-.36-1.46-.78-2.21-1.1-2.38-.99-4.24-2.64-5.99-4.49-5.55-5.87-10.76-12.03-15.55-18.53-.9-1.22-1.7-2.51-2.53-3.78-.59-.9-.82-1.9-.7-2.98.27-2.41.55-4.82.79-7.24.14-1.35.74-2.44,1.62-3.47,5.73-6.75,11.09-13.79,15.98-21.18.67-1.01,1.26-2.08,1.9-3.1.56-.88.76-1.83.64-2.86-.16-1.38-.34-2.75-.47-4.13-.1-1.02-.12-2.04-.18-3.06.15-.01.31-.02.46-.03Z"/>
      <path class="cls-1" d="M77.91,45.58c6.72-.95,13.48-1.51,20.26-2.11-.77-.56-1.65-.81-2.58-.81-5.47.02-10.93.04-16.4.12-2.17.03-4.33.25-6.5.3-1.39.03-2.64.4-3.84,1.05-4.61,2.5-9.24,4.98-13.85,7.47-1.1.59-2.19,1.21-3.44,1.91.25-.88.82-1.25,1.39-1.6,2.74-1.69,5.22-3.73,7.68-5.79,1.28-1.07,2.44-2.21,3.2-3.71.56-1.1,1.39-1.6,2.68-1.7,7.4-.56,14.81-.78,22.23-.5,2.64.1,5.29.24,7.93.35,1.36.06,2.64.36,3.89.93,5.73,2.62,11.22,5.67,16.69,8.77.19.11.39.21.54.36,2.35,2.23,4.69,4.48,7.21,6.89-1.19.1-1.92-.24-2.66-.69-3.42-2.05-6.85-4.09-10.32-6.04-.84-.47-1.87-.69-2.83-.81-1.63-.21-3.29-.19-4.93-.37-.84-.09-1.7-.33-2.48-.66-2-.84-3.96-1.75-5.93-2.66-1.29-.6-2.63-.79-4.05-.73-3.94.19-7.89.33-11.83.47-.68.02-1.35-.03-2.03-.06,0-.12-.02-.25-.03-.37Z"/>
      <path class="cls-1" d="M31.72,73.92c-.33.3-.81.53-.97.9-.5,1.15-1.45,1.81-2.4,2.5-.63.45-1.26.91-1.87,1.34-1.23-.83-1.46-1.97-.56-2.97.75-.83,1.56-1.65,2.44-2.34,3.12-2.42,6.29-4.78,9.42-7.19.68-.52,1.37-1.1,1.84-1.8,1.66-2.48,3.79-4.36,6.42-5.75,1.49-.79,2.91-1.71,4.52-2.67-.07.62-.44.83-.75,1.07-1.06.83-2.12,1.66-3.2,2.46-.48.36-.77.78-.83,1.39-.08.82-.31,1.63-.35,2.44-.04.8-.44,1.14-1.13,1.37-.9.3-1.78.7-2.68,1-.86.29-1.48.85-2.27,1.66.48-.05.75-.06,1-.12.93-.21,1.85-.48,2.79-.64.44-.08.98-.08,1.37.1.77.35,1.51.3,2.28.12.63-.15,1.26-.34,1.9-.45,1.99-.37,3.86-.98,5.4-2.38.11-.1.28-.15.47-.15-.69,1.27-1.63,2.24-3.01,2.77-4.38,1.65-8.76,3.32-13.14,4.98-.28.11-.6.16-.85.31-.35.2-.66.47-.98.71.03.08.06.17.09.25.93.09,1.87.26,2.8.24,1.6-.04,2.83.54,3.86,1.75.84.99,1.81,1.87,2.71,2.81.29.3.54.64.94,1.12-1.69.31-3.21.57-4.72.86-2.51.49-5.01,1.04-7.53,1.49-.97.17-1.42.69-1.61,1.6-.29,1.4-.62,2.79-.98,4.38-.48-.29-.95-.45-1.23-.77-1.14-1.31-2.25-2.64-3.31-4.02-.55-.71-.5-1.03.1-1.73.84-.99,1.68-2,2.59-2.92,1.01-1.02,1.32-2.28,1.41-3.74Z"/>
      <path class="cls-1" d="M99.07,58.68c.46-.27.69-.44.94-.55,2.91-1.25,5.83-2.48,8.73-3.74,1.29-.56,2.48-.47,3.75.13,6.22,2.93,12.11,6.42,17.73,10.37.77.54,1.16,1.21,1.33,2.12,1.18,6.41,1.31,12.85.73,19.33-.05.5-.21,1.03-.43,1.48-2.64,5.44-5.58,10.69-9.19,15.56-.25.34-.53.66-1.03.95.04-.7.16-1.41.11-2.1-.15-1.91.56-3.29,2.21-4.3.52-.32.92-.93,1.22-1.49,1.35-2.52,2.64-5.08,3.97-7.62,1.03-1.99,1.41-4.07,1.08-6.3-.54-3.6-1.03-7.21-1.55-10.82-.05-.34-.17-.67-.23-1.01-.19-1.03-.78-1.71-1.73-2.11-1.76-.74-3.53-1.46-5.26-2.27-.93-.44-1.85-.96-2.66-1.59-2.64-2.05-5.24-4.14-7.84-6.25-1.1-.89-2.25-1.19-3.63-.77-1.16.35-2.39.48-3.53.89-1.5.54-2.96.28-4.7.09Z"/>
      <path class="cls-1" d="M82.82,151.53c-.17-.24-.35-.47-.5-.73-4.02-7.15-7.81-14.42-11.09-21.95-.77-1.77-.9-3.43-.42-5.29,1.78-6.76,4.01-13.38,6.4-19.94.77-2.12,1.6-4.22,2.4-6.33.14-.36.31-.7.58-1.05.34,1.49.95,2.93.64,4.49-1.38,6.93-2.83,13.85-4.15,20.8-.49,2.6-.78,5.24-1.02,7.87-.08.92.09,1.93.4,2.8,1.44,3.95,2.97,7.87,4.49,11.79.49,1.25.99,2.51,1.58,3.71.59,1.2.75,2.47.68,3.82Z"/>
      <path class="cls-1" d="M47.52,60.76c.42-.2.81-.46,1.25-.59,1.25-.39,2.18-1.16,2.94-2.22.73-1.02,1.53-2,2.38-2.92.55-.59,1.17-1.2,1.89-1.52,2.91-1.33,5.85-2.61,8.82-3.8,1.76-.7,3.62-.45,5.51-.38-.05.28-.04.42-.09.52-1.36,2.36-2.7,4.75-4.12,7.07-.29.46-.88.85-1.41,1.03-2.63.87-5.28,1.68-7.93,2.48-2.06.63-4.21.47-6.32.63-.93.07-1.87.01-2.81.01-.03-.1-.06-.2-.1-.31Z"/>
      <path class="cls-1" d="M47.75,80.91c.53.03,1.08-.03,1.58.09,2.74.65,5.47,1.36,8.21,2.02,1.33.32,1.86,1.35,2.29,2.45.12.3,0,.79-.18,1.1-1.9,3.41-3.83,6.8-5.76,10.2-.37.65-.97.95-1.65,1.18-2.63.88-5.25,1.79-7.88,2.69-1.19.41-1.25.49-1.06,1.66.22,1.28.44,2.56.69,3.84.18.89.34,1.02,1.24.85,1.02-.18,2.03-.45,3.05-.67.28-.06.56-.07.96.11-.56.45-1.05,1.06-1.68,1.31-1.2.47-2.48.79-3.74,1.08-.82.19-1.08-.01-1.3-.87-.31-1.22-.54-2.46-.88-3.67-.4-1.46-.75-2.96-1.36-4.33-.66-1.49-.48-2.93-.35-4.6.35.24.59.38.8.56.63.53,1.26,1.06,1.87,1.62.5.45,1.01.57,1.66.35,1.89-.65,3.8-1.22,5.67-1.91.54-.2,1.06-.62,1.43-1.07,1.93-2.35,3.61-4.89,5.04-7.57.79-1.49.28-2.81-1.33-3.41-2.07-.77-4.16-1.51-6.24-2.26-.39-.14-.77-.31-1.15-.47.02-.09.03-.18.05-.27Z"/>
      <path class="cls-1" d="M90.92,75.59c-.93-.55-1.37-1.14-1.61-1.93-.79-2.61-1.58-5.22-2.42-7.82-.23-.7-.1-1.23.34-1.8,1.02-1.29,2.01-2.61,2.98-3.94.81-1.12.25-3.02-1.05-3.56-.78-.33-1.53-.42-2.38-.06-2.2.91-4.46,1.69-6.65,2.61-1.05.44-2.05.6-3.15.32-.75-.19-1.52-.29-2.28-.43.22-1.69,1.05-2.66,2.57-2.97,3.56-.73,7.14-1.38,10.7-2.15,1.33-.29,2.36.31,3.42.88.17.09.29.32.38.5.08.15.1.33.14.5.95,4.45.97,3.44-1.15,6.88-.36.59-.7,1.21-1.16,1.73-.73.83-.68,1.72-.47,2.69.55,2.54,1.08,5.08,1.61,7.63.05.25.08.5.15.93Z"/>
      <path class="cls-1" d="M49.67,27.86v1.74c-4.49.34-8.96.68-13.53,1.03v-10.75c4.47-.34,8.94-.68,13.5-1.03.04.41.08.65.08.9,0,.25-.04.51-.07.87-3.85.29-7.68.58-11.6.88v2.56c3.45-.25,6.84-.49,10.3-.74v1.75c-3.45.27-6.85.53-10.32.8v2.8c3.85-.27,7.67-.53,11.64-.81Z"/>
      <path class="cls-1" d="M85.92,26.95v-2.82h-5.43v-1.73h7.37c.1,2.07.07,4.12.01,6.26-.47.04-.84.09-1.22.09-3.17,0-6.33-.02-9.5-.05-.56,0-1.13-.05-1.68-.15-1.2-.21-1.92-.87-1.97-2.08-.09-2.03-.09-4.08,0-6.11.06-1.32.8-2,2.12-2.27.47-.1.94-.17,1.42-.17,3.12,0,6.25,0,9.37.02.21,0,.42.04.7.07v1.7c-.49,0-.96,0-1.42,0-2.86,0-5.73-.02-8.59-.01-1.58,0-1.79.23-1.79,1.82,0,1.35-.02,2.69,0,4.04.02.98.38,1.36,1.33,1.37,3.03.02,6.07,0,9.27,0Z"/>
      <path class="cls-1" d="M94.4,19.89v2.57c3.47.14,6.88.28,10.38.42v1.7c-1.7.16-3.41-.15-5.12-.16-1.72-.01-3.45,0-5.25,0v2.66c3.89.16,7.73.32,11.71.48.03.57.05,1.07.08,1.76-4.57-.17-9.05-.35-13.72-.52-.02-3.54,0-7.02,0-10.68,4.6.01,9.08.27,13.63.49v1.72c-3.9-.14-7.74-.28-11.71-.43Z"/>
      <path class="cls-1" d="M125.56,25.36c0,.95.04,1.91,0,2.86-.06,1.35-.76,2.09-2.11,2.16-1.03.05-2.08-.02-3.11-.09-1.9-.12-3.8-.27-5.7-.43-.6-.05-1.21-.12-1.8-.26-1.32-.31-1.99-.99-2.05-2.34-.09-1.99-.09-3.99,0-5.98.05-1.38.76-2,2.14-2.14.47-.05.95-.06,1.43-.03,2.64.18,5.27.38,7.9.59.43.03.86.13,1.27.26,1.36.43,1.98,1.25,2.05,2.67,0,.09,0,.17,0,.26,0,.82,0,1.65,0,2.47h0ZM123.71,25.19c0-.78.02-1.56,0-2.34-.03-.94-.31-1.28-1.21-1.36-2.89-.25-5.77-.48-8.67-.69-.8-.06-1.17.25-1.19,1.02-.05,1.69-.05,3.38,0,5.06.02.73.41,1.06,1.18,1.12,2.89.23,5.78.45,8.67.64.86.06,1.17-.25,1.21-1.13.03-.78,0-1.56,0-2.34Z"/>
      <path class="cls-1" d="M19.53,29.09v3.3c-.65.08-1.19.14-1.81.22v-10.71c1.5-.2,2.99-.41,4.48-.58,2.11-.24,4.22-.46,6.33-.67.47-.04.95-.02,1.42.05,1.01.15,1.71.76,1.81,1.76.11,1.11.11,2.25-.02,3.35-.13,1.09-.93,1.76-1.98,1.99-1.05.23-2.13.35-3.2.48-2.27.27-4.55.52-7.02.81ZM19.62,27.29c.97-.11,1.78-.2,2.59-.29,2.19-.25,4.38-.48,6.57-.75.96-.12,1.16-.39,1.2-1.35.02-.43.02-.87,0-1.3-.04-1.07-.3-1.32-1.33-1.22-1.59.16-3.18.33-4.77.52-1.41.16-2.81.36-4.26.54v3.84Z"/>
      <path class="cls-1" d="M56.21,18.56c0,1.61,0,3,0,4.38,0,1.09-.02,2.17,0,3.26.02,1.01.26,1.29,1.22,1.26,2.73-.08,5.46-.19,8.19-.33,1.07-.05,1.28-.3,1.29-1.37.02-2.08,0-4.17,0-6.25,0-.42.04-.85.06-1.33h1.79c.02.38.06.72.06,1.06,0,2.13.02,4.25,0,6.38-.02,2.28-.73,3.1-2.97,3.22-2.77.16-5.55.23-8.32.34-.09,0-.17,0-.26,0-2.23-.08-2.97-.81-3-3.01-.03-2,0-3.99,0-5.99,0-.47,0-.94,0-1.51.68-.04,1.23-.06,1.93-.1Z"/>
      <path class="cls-1" d="M143.25,21.85v1.77c-2.01-.21-3.96-.42-6.09-.65v8.94c-.73-.1-1.27-.17-1.95-.26v-8.92c-2.14-.24-4.15-.47-6.19-.7v-1.77c4.77.53,9.45,1.05,14.23,1.58Z"/>
      <path class="cls-1" d="M53.74,89.26c-1.18,1.65-2.36,3.3-3.55,4.94-.15.2-.37.4-.6.48-1.53.56-3.07,1.09-4.61,1.62l-.12-.24c2.86-2.36,5.73-4.72,8.59-7.09.1.09.19.19.29.28Z"/>
      <path class="cls-1" d="M36.96,85.64c-.23,1.61-.41,2.98-.61,4.34-.04.24-.13.48-.24.91-.89-1.02-1.67-1.92-2.56-2.94.68-1.33,1.83-1.91,3.41-2.3Z"/>
      <path class="cls-1" d="M48.31,62.51c.88-.05,1.56-.08,2.2-.12.69,1.81.28,2.26-2.31,2.54.03-.77.07-1.51.11-2.42Z"/>
      <path d="M123.71,25.19c0,.78.02,1.56,0,2.34-.04.88-.34,1.18-1.21,1.13-2.89-.19-5.78-.41-8.67-.64-.77-.06-1.16-.39-1.18-1.12-.05-1.69-.05-3.38,0-5.06.02-.78.4-1.08,1.19-1.02,2.89.21,5.78.43,8.67.69.9.08,1.17.42,1.21,1.36.03.78,0,1.56,0,2.34Z"/>
      <path d="M19.62,27.29v-3.84c1.46-.19,2.86-.38,4.26-.54,1.59-.19,3.18-.36,4.77-.52,1.03-.1,1.3.15,1.33,1.22.01.43.02.87,0,1.3-.04.96-.24,1.23-1.2,1.35-2.19.27-4.38.5-6.57.75-.81.09-1.62.18-2.59.29Z"/>
    </g>
  </g>
</svg>